<?xml version="1.0" encoding="UTF-8"?><svg xmlns="http://www.w3.org/2000/svg" xmlns:xlink="http://www.w3.org/1999/xlink" viewBox="0 0 1280 720"><defs><clipPath id="clippath"><rect width="1280" height="720" fill="none"/></clipPath></defs><g isolation="isolate"><g id="Layer_2"><g id="Layer_7"><g clip-path="url(#clippath)"><rect x="-171.96" y="-83.05" width="1623.91" height="858.7" fill="#1a1a1a"/><g><polygon points="1316.48 707.28 1182.73 -16.87 1082.98 -90.63 -103.11 183.7 -169.94 288.23 -113.02 596.38 -29.73 581 -86.63 272.92 1099.46 -1.41 1233.18 722.58 -56.88 900.32 -40.15 990.93 1249.66 811.8 1316.48 707.28" fill="#ebebec"/><g><path d="M1215.17,278.44l-8.21-44.47c-.51-2.78-3.04-4.65-5.63-4.17l-31.12,5.75c-2.6,.48-4.29,3.12-3.77,5.9l8.21,44.47c.51,2.78,3.04,4.65,5.63,4.17l31.12-5.75c2.6-.48,4.29-3.12,3.77-5.9Z" fill="#212531"/><path d="M1227.3,344.12l-8.21-44.47c-.51-2.78-3.04-4.65-5.63-4.17l-31.12,5.75c-2.6,.48-4.29,3.12-3.77,5.9l8.21,44.47c.51,2.78,3.04,4.65,5.63,4.17l31.12-5.75c2.6-.48,4.29-3.12,3.77-5.9Z" fill="#212531"/><path d="M1203.03,212.75l-8.21-44.47c-.51-2.78-3.04-4.65-5.63-4.17l-31.12,5.75c-2.6,.48-4.29,3.12-3.77,5.9l8.21,44.47c.51,2.78,3.04,4.65,5.63,4.17l31.12-5.75c2.6-.48,4.29-3.12,3.77-5.9Z" fill="#212531"/><path d="M1239.43,409.81l-8.21-44.47c-.51-2.78-3.04-4.65-5.63-4.17l-31.12,5.75c-2.6,.48-4.29,3.12-3.77,5.9l8.21,44.47c.51,2.78,3.04,4.65,5.63,4.17l31.12-5.75c2.6-.48,4.29-3.12,3.77-5.9Z" fill="#212531"/><path d="M1190.9,147.07l-8.21-44.47c-.51-2.78-3.04-4.65-5.63-4.17l-31.12,5.75c-2.6,.48-4.29,3.12-3.77,5.9l8.21,44.47c.51,2.78,3.04,4.65,5.63,4.17l31.12-5.75c2.6-.48,4.29-3.12,3.77-5.9Z" fill="#212531"/><path d="M1130.03,44.4l8.21,44.47c.51,2.78,3.04,4.65,5.63,4.17l31.12-5.75c2.6-.48,4.29-3.12,3.77-5.9l-8.21-44.47c-.51-2.78-3.04-4.65-5.63-4.17l-31.12,5.75c-2.6,.48-4.29,3.12-3.77,5.9Z" fill="#212531"/><path d="M1166.64,15.7l-5.27-28.54-40.53,7.49,5.27,28.54c.51,2.78,3.04,4.65,5.63,4.17l31.12-5.75c2.6-.48,4.29-3.12,3.77-5.9Z" fill="#212531"/><path d="M1299.33,734.11l-7.45-40.36c-.51-2.78-3.04-4.65-5.63-4.17l-31.12,5.75c-2.6,.48-4.29,3.12-3.77,5.9l8.21,44.47c.51,2.78,3.04,4.65,5.63,4.17l27.27-5.04,6.86-10.73Z" fill="#212531"/><path d="M1287.96,672.54l-8.21-44.47c-.51-2.78-3.04-4.65-5.63-4.17l-31.12,5.75c-2.6,.48-4.29,3.12-3.77,5.9l8.21,44.47c.51,2.78,3.04,4.65,5.63,4.17l31.12-5.75c2.6-.48,4.29-3.12,3.77-5.9Z" fill="#212531"/><path d="M1251.56,475.49l-8.21-44.47c-.51-2.78-3.04-4.65-5.63-4.17l-31.12,5.75c-2.6,.48-4.29,3.12-3.77,5.9l8.21,44.47c.51,2.78,3.04,4.65,5.63,4.17l31.12-5.75c2.6-.48,4.29-3.12,3.77-5.9Z" fill="#212531"/><path d="M1263.69,541.17l-8.21-44.47c-.51-2.78-3.04-4.65-5.63-4.17l-31.12,5.75c-2.6,.48-4.29,3.12-3.77,5.9l8.21,44.47c.51,2.78,3.04,4.65,5.63,4.17l31.12-5.75c2.6-.48,4.29-3.12,3.77-5.9Z" fill="#212531"/><path d="M1275.83,606.86l-8.21-44.47c-.51-2.78-3.04-4.65-5.63-4.17l-31.12,5.75c-2.6,.48-4.29,3.12-3.77,5.9l8.21,44.47c.51,2.78,3.04,4.65,5.63,4.17l31.12-5.75c2.6-.48,4.29-3.12,3.77-5.9Z" fill="#212531"/></g><g><path d="M505.85,111.32l40.51-9.41c2.77-.64,4.49-3.57,3.84-6.54l-7.02-32.2c-.66-3.01-3.48-4.94-6.29-4.29l-40.51,9.41c-2.77,.64-4.49,3.57-3.84,6.54l7.02,32.2c.66,3.01,3.48,4.94,6.29,4.29Z" fill="#212531"/><path d="M793.44,38.84l-7.02-32.2c-.66-3.01-3.48-4.94-6.29-4.29l-40.3,9.37c-2.77,.64-4.49,3.57-3.84,6.54l7.02,32.2c.66,3.01,3.48,4.94,6.29,4.29l40.3-9.37c2.77-.64,4.49-3.57,3.84-6.54Z" fill="#212531"/><path d="M688.37,68.91l40.51-9.41c2.77-.64,4.49-3.57,3.84-6.54l-7.02-32.2c-.66-3.01-3.48-4.94-6.29-4.29l-40.51,9.41c-2.77,.64-4.49,3.57-3.84,6.54l7.02,32.2c.66,3.01,3.48,4.94,6.29,4.29Z" fill="#212531"/><path d="M610.93,81.25l-7.02-32.2c-.66-3.01-3.48-4.94-6.29-4.29l-40.3,9.37c-2.77,.64-4.49,3.57-3.84,6.54l7.02,32.2c.66,3.01,3.48,4.94,6.29,4.29l40.3-9.37c2.77-.64,4.49-3.57,3.84-6.54Z" fill="#212531"/><path d="M627.52,83.05l40.42-9.39c2.77-.64,4.49-3.57,3.84-6.54l-7.02-32.2c-.66-3.01-3.48-4.94-6.29-4.29l-40.42,9.39c-2.77,.64-4.49,3.57-3.84,6.54l7.02,32.2c.66,3.01,3.48,4.94,6.29,4.29Z" fill="#212531"/><path d="M796.72,4.14l7.02,32.2c.66,3.01,3.48,4.94,6.29,4.29l40.3-9.37c2.77-.64,4.49-3.57,3.84-6.54l-7.02-32.2c-.66-3.01-3.48-4.94-6.29-4.29l-40.3,9.37c-2.77,.64-4.49,3.57-3.84,6.54Z" fill="#212531"/><path d="M870.76,26.52l40.48-9.41c2.77-.64,4.49-3.57,3.84-6.54l-7.02-32.2c-.66-3.01-3.48-4.94-6.29-4.29l-40.48,9.41c-2.77,.64-4.49,3.57-3.84,6.54l7.02,32.2c.66,3.01,3.48,4.94,6.29,4.29Z" fill="#212531"/><path d="M931.66,12.37l40.46-9.4c2.77-.64,4.49-3.57,3.84-6.54l-7.02-32.2c-.66-3.01-3.48-4.94-6.29-4.29l-40.46,9.4c-2.77,.64-4.49,3.57-3.84,6.54l7.02,32.2c.66,3.01,3.48,4.94,6.29,4.29Z" fill="#212531"/><path d="M-41.32,238.48L-.94,229.1c2.77-.64,4.49-3.57,3.84-6.54l-7.02-32.2c-.66-3.01-3.48-4.94-6.29-4.29l-40.37,9.38c-2.77,.64-4.49,3.57-3.84,6.54l7.02,32.2c.66,3.01,3.48,4.94,6.29,4.29Z" fill="#212531"/><path d="M19.48,224.35l40.37-9.38c2.77-.64,4.49-3.57,3.84-6.54l-7.02-32.2c-.66-3.01-3.48-4.94-6.29-4.29l-40.37,9.38c-2.77,.64-4.49,3.57-3.84,6.54l7.02,32.2c.66,3.01,3.48,4.94,6.29,4.29Z" fill="#212531"/><path d="M80.28,210.22l40.37-9.38c2.77-.64,4.49-3.57,3.84-6.54l-7.02-32.2c-.66-3.01-3.48-4.94-6.29-4.29l-40.37,9.38c-2.77,.64-4.49,3.57-3.84,6.54l7.02,32.2c.66,3.01,3.48,4.94,6.29,4.29Z" fill="#212531"/><path d="M141.08,196.09l40.46-9.4c2.77-.64,4.49-3.57,3.84-6.54l-7.02-32.2c-.66-3.01-3.48-4.94-6.29-4.29l-40.46,9.4c-2.77,.64-4.49,3.57-3.84,6.54l7.02,32.2c.66,3.01,3.48,4.94,6.29,4.29Z" fill="#212531"/><path d="M431.82,88.94l7.02,32.2c.66,3.01,3.48,4.94,6.29,4.29l40.3-9.37c2.77-.64,4.49-3.57,3.84-6.54l-7.02-32.2c-.66-3.01-3.48-4.94-6.29-4.29l-40.3,9.37c-2.77,.64-4.49,3.57-3.84,6.54Z" fill="#212531"/><path d="M428.54,123.64l-7.02-32.2c-.66-3.01-3.48-4.94-6.29-4.29l-40.3,9.37c-2.77,.64-4.49,3.57-3.84,6.54l7.02,32.2c.66,3.01,3.48,4.94,6.29,4.29l40.3-9.37c2.77-.64,4.49-3.57,3.84-6.54Z" fill="#212531"/><path d="M246.11,166.03l-7.02-32.2c-.66-3.01-3.48-4.94-6.29-4.29l-40.3,9.37c-2.77,.64-4.49,3.57-3.84,6.54l7.02,32.2c.66,3.01,3.48,4.94,6.29,4.29l40.3-9.37c2.77-.64,4.49-3.57,3.84-6.54Z" fill="#212531"/><path d="M367.81,137.75l-7.02-32.2c-.66-3.01-3.48-4.94-6.29-4.29l-40.3,9.37c-2.77,.64-4.49,3.57-3.84,6.54l7.02,32.2c.66,3.01,3.48,4.94,6.29,4.29l40.3-9.37c2.77-.64,4.49-3.57,3.84-6.54Z" fill="#212531"/><path d="M262.7,167.83l40.54-9.42c2.77-.64,4.49-3.57,3.84-6.54l-7.02-32.2c-.66-3.01-3.48-4.94-6.29-4.29l-40.54,9.42c-2.77,.64-4.49,3.57-3.84,6.54l7.02,32.2c.66,3.01,3.48,4.94,6.29,4.29Z" fill="#212531"/></g><polygon points="1099.46 -1.41 1182.75 -16.79 1110.16 56.51 1099.46 -1.41" fill="#212531" mix-blend-mode="multiply" opacity=".45"/></g><g><polygon points="579.61 1681.19 869.64 1026.31 829.74 912.21 -277.26 479.75 -388.56 526.88 -511.98 805.56 -436.38 839.05 -312.99 560.44 794.01 992.9 504.04 1647.64 -633.71 1080.43 -670 1162.37 468.31 1728.32 579.61 1681.19" fill="#ebebec"/><g><path d="M253.49,756.75l37.83,14.73c2.59,1.01,5.58-.39,6.69-3.14l12.04-29.71c1.13-2.78-.09-5.88-2.72-6.9l-37.83-14.73c-2.59-1.01-5.58,.39-6.69,3.14l-12.04,29.71c-1.13,2.78,.09,5.88,2.72,6.9Z" fill="#212531"/><path d="M206.09,698.04l-12.04,29.71c-1.13,2.78,.09,5.88,2.72,6.9l37.64,14.66c2.59,1.01,5.58-.39,6.69-3.14l12.04-29.71c1.13-2.78-.09-5.88-2.72-6.9l-37.64-14.66c-2.59-1.01-5.58,.39-6.69,3.14Z" fill="#212531"/><path d="M184.38,724.09l12.04-29.71c1.13-2.78-.09-5.88-2.72-6.9l-37.64-14.66c-2.59-1.01-5.58,.39-6.69,3.14l-12.04,29.71c-1.13,2.78,.09,5.88,2.72,6.9l37.64,14.66c2.59,1.01,5.58-.39,6.69-3.14Z" fill="#212531"/><path d="M14.01,657.74l12.04-29.71c1.13-2.78-.09-5.88-2.72-6.9l-37.64-14.66c-2.59-1.01-5.58,.39-6.69,3.14l-12.04,29.71c-1.13,2.78,.09,5.88,2.72,6.9l37.64,14.66c2.59,1.01,5.58-.39,6.69-3.14Z" fill="#212531"/><path d="M127.67,702l12.04-29.71c1.13-2.78-.09-5.88-2.72-6.9l-37.64-14.66c-2.59-1.01-5.58,.39-6.69,3.14l-12.04,29.71c-1.13,2.78,.09,5.88,2.72,6.9l37.64,14.66c2.59,1.01,5.58-.39,6.69-3.14Z" fill="#212531"/><path d="M26.4,668.31l37.87,14.75c2.59,1.01,5.58-.39,6.69-3.14l12.04-29.71c1.13-2.78-.09-5.88-2.72-6.9l-37.87-14.75c-2.59-1.01-5.58,.39-6.69,3.14l-12.04,29.71c-1.13,2.78,.09,5.88,2.72,6.9Z" fill="#212531"/></g></g><g><text transform="translate(497.82 275.7)" fill="#fff" font-family="SuezOne-Regular, &apos;Suez One&apos;" font-size="83.76"><tspan x="0" y="0">chillFLIX</tspan></text><g><path d="M445.01,210.45c-20.8,0-37.67,16.87-37.67,37.67s16.87,37.67,37.67,37.67,37.67-16.87,37.67-37.67-16.87-37.67-37.67-37.67Zm0,2.75c6.78,0,12.28,5.5,12.28,12.28s-5.5,12.28-12.28,12.28-12.28-5.5-12.28-12.28,5.5-12.28,12.28-12.28Zm7.14,34.92c0,3.95-3.2,7.14-7.14,7.14s-7.14-3.2-7.14-7.14,3.2-7.14,7.14-7.14,7.14,3.2,7.14,7.14Zm-29.78,12.28c-6.78,0-12.28-5.5-12.28-12.28s5.5-12.28,12.28-12.28,12.28,5.5,12.28,12.28-5.5,12.28-12.28,12.28Zm22.64,22.64c-6.78,0-12.28-5.5-12.28-12.28s5.5-12.28,12.28-12.28,12.28,5.5,12.28,12.28-5.5,12.28-12.28,12.28Zm22.64-22.64c-6.78,0-12.28-5.5-12.28-12.28s5.5-12.28,12.28-12.28,12.28,5.5,12.28,12.28-5.5,12.28-12.28,12.28Z" fill="#ebe0cb"/><circle cx="445.01" cy="248.12" r="7.14" fill="#1a1a1a"/><circle cx="445.01" cy="225.49" r="12.28" transform="translate(-39.9 108.28) rotate(-13.28)" fill="#1a1a1a"/><circle cx="445.01" cy="270.76" r="12.28" transform="translate(-37.62 74.78) rotate(-9.22)" fill="#1a1a1a"/><circle cx="422.38" cy="248.12" r="12.28" transform="translate(-45.71 103.68) rotate(-13.28)" fill="#1a1a1a"/><circle cx="467.65" cy="248.12" r="12.28" fill="#1a1a1a"/></g></g><g><g><path d="M715.23,418.06l-17.84,215.42c0,2.29-3.89,4.43-10.6,6.25-.47,.13-.96,.25-1.47,.38-5.46,1.35-12.56,2.52-20.8,3.39-.33,.04-.65,.07-.98,.11-6.99,.71-14.78,1.22-23.09,1.48h-.1c-4.22,.14-8.56,.21-13.01,.21-4.81,0-9.5-.08-14.04-.24-.04,0-.08,0-.11,0-8.84-.29-17.08-.88-24.36-1.7-.11-.01-.22-.02-.33-.04-8.93-1.01-16.41-2.35-21.81-3.92-.06-.01-.11-.04-.16-.05-5.88-1.73-9.24-3.73-9.24-5.87l-3.25-36.53-13.07-147.08h0s-2.83-31.82-2.83-31.82h177.09Z" fill="#ebe0cb"/><path d="M627.35,646.46c-4.69,0-9.42-.08-14.08-.24-.04,0-.1,0-.16,0-8.62-.28-16.83-.86-24.4-1.7l-.14-.02c-.07,0-.14-.01-.21-.02-8.97-1.02-16.58-2.39-21.98-3.96-.02,0-.07-.02-.13-.04-6.77-1.99-10.07-4.25-10.12-6.94l-19.26-216.64h179.62l-17.94,216.63c-.05,2.85-3.79,5.24-11.46,7.32-.48,.13-.98,.26-1.48,.39-5.57,1.38-12.81,2.56-20.97,3.42-.21,.03-.45,.05-.68,.08l-.29,.03c-7.08,.73-14.88,1.22-23.17,1.49h-.14c-4.18,.14-8.57,.21-13.01,.21Zm-13.99-2.56c9.1,.31,18.36,.31,26.96,.03h.14c8.21-.26,15.95-.76,22.97-1.47l.3-.03c.22-.02,.43-.04,.65-.07,8.07-.85,15.21-2.02,20.67-3.37,.49-.12,.97-.25,1.44-.38,9.27-2.51,9.74-4.72,9.74-5.13v-.1s17.74-214.17,17.74-214.17h-174.56l19.04,214.26c0,1.11,2.21,2.94,8.41,4.76l.09,.03c5.34,1.55,12.81,2.9,21.68,3.9l.14,.02c.07,0,.14,.01,.21,.02,7.5,.84,15.67,1.41,24.25,1.69h.12Zm-.06,0s.01,0,.02,0c0,0-.01,0-.02,0Z" fill="#1a1a1a"/><path d="M643.31,424.61l-2.56,197.27-.27,20.66-.04,2.55h-.1c-4.22,.14-8.56,.21-13.01,.21-4.81,0-9.5-.08-14.04-.24-.04,0-.08,0-.11,0l-.04-2.5-.3-20.64-2.81-197.3h33.26Z" fill="#d94d30"/><path d="M627.35,646.46c-4.69,0-9.42-.08-14.08-.24-.07,0-.19,0-.29-.03l-.93-.18-.35-24.08-2.83-198.48h35.61l-2.89,222.79h-1.24c-4.18,.14-8.57,.21-13.01,.21Zm-13.01-2.52c8.42,.26,16.96,.27,24.97,.03l.29-22.1,2.54-196.09h-30.91l2.79,196.13,.32,22.04Zm-1.05-.03s.01,0,.02,0c0,0-.01,0-.02,0Z" fill="#191919"/><path d="M703.06,424.61l-15.34,202.88-.93,12.24c-.47,.13-.96,.25-1.47,.38-5.46,1.35-12.56,2.52-20.8,3.39v-.3s.77-19.66,.77-19.66l7.71-199.45,30.06,.52Z" fill="#d94d30"/><path d="M663.3,644.8l.08-1.65,.76-19.65,7.75-200.58,32.42,.56-.09,1.23-16.33,215.94-.79,.21c-.48,.13-.97,.26-1.48,.39-5.57,1.38-12.81,2.56-20.97,3.42l-1.34,.14Zm10.81-219.53l-8.38,216.94c7.5-.84,14.16-1.94,19.31-3.22,.22-.06,.44-.11,.65-.17l16.12-213.07-27.7-.48Z" fill="#191919"/><path d="M588.84,643.33v.03c-.11-.01-.22-.02-.33-.04-8.93-1.01-16.41-2.35-21.81-3.92-.06-.01-.11-.04-.16-.05l-.87-11.47-15.36-203.01,30.06-.52,7.71,199.34,.76,19.63Z" fill="#d94d30"/><path d="M590,644.68l-1.43-.19c-.07,0-.14-.01-.21-.02-8.97-1.02-16.58-2.39-21.98-3.96-.02,0-.07-.02-.13-.04l-.74-.24-.13-.8-.87-11.47-15.45-204.23,32.42-.56,.04,1.13,8.47,219.05v1.33Zm-22.36-6.22c5.07,1.41,11.93,2.64,19.99,3.59l-8.37-216.52-27.7,.48,16.08,212.45Z" fill="#191919"/></g><path d="M715.23,418.06l-17.84,215.42c0,2.29-3.89,4.43-10.6,6.25-.47,.13-.96,.25-1.47,.38-5.46,1.35-12.56,2.52-20.8,3.39-.33,.04-.65,.07-.98,.11-6.99,.71-14.78,1.22-23.09,1.48h-.1c-4.22,.14-8.56,.21-13.01,.21-4.81,0-9.5-.08-14.04-.24-.04,0-.08,0-.11,0-8.84-.29-17.08-.88-24.36-1.7-.11-.01-.22-.02-.33-.04-8.93-1.01-16.41-2.35-21.81-3.92-.06-.01-.11-.04-.16-.05-5.88-1.73-9.24-3.73-9.24-5.87l-3.25-36.53s24,36.92,78.78,17.39c57.65-20.55,83.64-58.32,64.33-102.23-10.58-24.07-61.8-48.43-101.38-55.12-32.82-5.55-54.81-7.13-54.81-7.13h0s-2.83-31.82-2.83-31.82h177.09Z" fill="#1a1a1a" opacity=".15"/><g><path d="M740.36,430.57s-2.86-9.35,2.42-11.13c6.77-2.28,9.04,7.98,9.04,7.98,0,0,4.71-9.29,10.76-3.99s0,11.07,0,11.07c0,0,5.89,1.17,5.31,7.86-.58,6.68-6.92,4.31-6.92,4.31,0,0-.08,10.88-7.22,10.73-13.62-.29-12.67-11.69-12.67-11.69,0,0-7.88-1.6-7.63-6.56,.26-5.23,2.06-5.36,6.92-8.56Z" fill="#fcdb87"/><path d="M753.89,458.94c-.06,0-.12,0-.18,0-4.87-.1-8.6-1.55-11.08-4.31-2.44-2.71-2.99-5.96-3.09-7.74-2.5-.75-7.88-2.95-7.64-7.83,.25-5.19,2.12-6.35,5.51-8.44,.36-.23,.75-.47,1.17-.73-.99-4.11-1.11-10.28,3.71-11.91,2-.67,3.88-.53,5.58,.43,2.17,1.23,3.58,3.6,4.42,5.55,1.25-1.51,3.07-3.17,5.33-3.61,2.07-.4,4.08,.24,5.97,1.9,2.08,1.82,3.16,3.92,3.21,6.23,.05,2.16-.86,4.04-1.71,5.33,2.3,1.26,4.73,3.93,4.32,8.67-.21,2.47-1.14,4.23-2.75,5.25-1.44,.91-3.06,.97-4.3,.83-.27,2.27-1.07,6.05-3.44,8.36-1.38,1.34-3.07,2.02-5.03,2.02Zm-9.21-38.28c-.44,0-.91,.08-1.4,.25-3.69,1.24-1.46,9.13-1.43,9.21,.2,.66-.05,1.37-.63,1.74-.81,.53-1.53,.98-2.18,1.38-3.21,1.98-3.87,2.4-4.05,5.97-.17,3.52,6.33,4.96,6.4,4.98,.77,.16,1.29,.86,1.23,1.64,0,.03-.26,3.91,2.33,6.76,1.89,2.08,4.86,3.17,8.83,3.26,1.21,.03,2.18-.35,2.99-1.14,2.13-2.07,2.63-6.52,2.65-8.06,0-.5,.26-.98,.67-1.26,.42-.29,.94-.35,1.42-.17,.59,.22,2.4,.62,3.53-.1,.74-.47,1.18-1.45,1.31-2.9,.44-5.09-3.62-6.11-4.08-6.21-.56-.12-1.01-.54-1.17-1.09-.16-.55,0-1.14,.41-1.54,.02-.02,2.28-2.23,2.21-4.84-.03-1.4-.76-2.73-2.16-3.95-1.15-1.01-2.25-1.41-3.34-1.19-2.36,.45-4.42,3.56-5.01,4.73-.3,.58-.93,.91-1.57,.83-.65-.08-1.17-.56-1.31-1.2-.31-1.4-1.64-5.34-3.97-6.65-.52-.29-1.07-.44-1.66-.44Z" fill="#1a1a1a"/><path d="M753.77,447.42c-.49,0-1.03-.1-1.61-.31-1.83-.65-2.85-1.43-3.67-2.05-.84-.64-1.22-.93-2.24-.96-.85-.03-1.52-.74-1.49-1.6,.03-.85,.75-1.51,1.6-1.49,2,.07,3.02,.84,4.01,1.59,.72,.54,1.46,1.11,2.83,1.6,.26,.09,.42,.12,.51,.13,.15-.26,.31-.92,.43-1.37,.3-1.17,.66-2.62,1.69-3.81,1.02-1.18,.57-1.98,.33-2.27-.54-.64-.48-1.61,.15-2.17,.63-.55,1.57-.52,2.14,.1,.93,1.01,2.06,3.64-.28,6.36-.55,.64-.8,1.61-1.03,2.55-.32,1.26-.68,2.68-1.96,3.37-.43,.23-.89,.34-1.4,.34Z" fill="#1a1a1a"/></g><g><path d="M534.97,641.45c-7.08-2.55-9.91,6.38-19.31-3.59-2.91-3.08-3.78-5.94-3.55-8.44,.53-6.05,7.51-10.01,7.51-10.01,0,0,.55-10.27,9.12-8.57,9.5,1.88,6.48,10.46,6.32,10.9,0,0,0,0,0,.02,5.87-2.93,9.9-1.76,11.94,2.52,2.66,5.55-1.67,7.73-.06,9.33,4.97,4.94-4.89,10.38-11.97,7.84Z" fill="#fcdb87"/><path d="M524.1,644.27c-2.57,0-5.61-1.16-9.56-5.34-2.93-3.11-4.27-6.35-3.96-9.64,.49-5.63,5.67-9.52,7.59-10.78,.23-1.7,1.06-5.58,3.9-7.79,1.88-1.46,4.23-1.93,6.97-1.38,3.36,.66,5.73,2.17,7.04,4.48,1.04,1.84,1.2,3.82,1.07,5.41,2.41-.77,4.56-.84,6.43-.19,2.08,.72,3.7,2.26,4.81,4.59,1.89,3.94,.75,6.61,.07,8.2-.11,.26-.26,.6-.32,.81,1.88,1.95,2.21,4.35,.88,6.46-2.2,3.48-8.9,5.85-14.57,3.82h0c-2.18-.79-3.86-.23-5.8,.41-1.4,.46-2.88,.95-4.55,.95Zm2.81-32.06c-1.15,0-2.12,.31-2.94,.94-2.52,1.95-2.81,6.31-2.81,6.36-.03,.52-.32,1-.78,1.26-.06,.03-6.28,3.64-6.73,8.8-.22,2.37,.83,4.81,3.13,7.24,5.16,5.47,7.69,4.63,10.89,3.58,2.17-.72,4.63-1.53,7.82-.38,4.08,1.46,9.41-.18,10.91-2.56,.39-.62,.69-1.5-.55-2.73-1.39-1.38-.69-3.02-.23-4.1,.59-1.39,1.27-2.97-.01-5.65-.74-1.55-1.76-2.56-3.03-3-1.75-.6-4.05-.2-6.83,1.19-.48,.24-1.05,.21-1.5-.07-.46-.28-.73-.78-.73-1.31,0-.2,.04-.4,.11-.58,.14-.42,1.11-3.49-.23-5.84-.85-1.49-2.51-2.5-4.95-2.98-.54-.11-1.05-.16-1.53-.16Z" fill="#1a1a1a"/><path d="M525.72,637.91c-.77,0-1.55-.12-2.29-.37-2.13-.7-3.74-2.33-4.42-4.46-.26-.81,.19-1.68,1-1.94,.81-.26,1.68,.19,1.94,1,.38,1.2,1.26,2.08,2.45,2.47,1.3,.43,2.78,.19,3.94-.64,2.14-1.53,4.59-1.61,6.56-1.67,1.24-.04,2.42-.08,3.02-.48,.55-.37,.59-.92,.12-1.64-.47-.71-.28-1.66,.42-2.14,.7-.47,1.65-.3,2.13,.39,.12,.17,1.13,1.69,.79,3.44-.19,1.02-.8,1.89-1.75,2.52-1.33,.89-3.01,.94-4.63,1-1.71,.06-3.48,.12-4.86,1.1-1.31,.94-2.87,1.42-4.42,1.42Z" fill="#1a1a1a"/></g><g><path d="M721.02,423c0,8.91-42.23,10.69-94.33,10.69s-94.34-1.78-94.34-10.69c0-1.84,1.81-9.03,5.13-10.69,.94,.45,2.02,.86,3.21,1.24,14.7,4.76,47.76,5.27,86.21,5.27,35.67,0,66.73-.39,82.75-4.29,2.53-.61,4.7-1.31,6.44-2.12,3.19,1.62,4.92,8.79,4.92,10.59Z" fill="#ebe0cb"/><path d="M626.69,434.85c-68.72,0-95.5-3.32-95.5-11.85,0-1.81,1.79-9.74,5.77-11.73l.51-.25,.51,.24c.87,.41,1.87,.8,3.07,1.19,14.87,4.81,49.09,5.21,85.85,5.21,34.24,0,66.31-.33,82.48-4.26,2.5-.6,4.59-1.29,6.22-2.04l.51-.24,.5,.26c3.83,1.95,5.56,9.82,5.56,11.62,0,8.53-26.77,11.85-95.49,11.85Zm-89.13-21.24c-2.43,1.78-4.05,7.64-4.05,9.39,0,1.91,3.45,5.42,26.58,7.53,14.94,1.37,36.1,2,66.6,2s51.65-.64,66.59-2c23.12-2.11,26.58-5.63,26.58-7.53,0-1.68-1.58-7.53-3.86-9.28-1.67,.72-3.71,1.37-6.07,1.94-16.42,3.99-48.64,4.32-83.02,4.32-36.95,0-71.38-.41-86.56-5.33-1.05-.34-1.96-.68-2.78-1.04Z" fill="#1a1a1a"/></g><g><g><path d="M694.95,386.19c-1.26-.04-2.61,.09-4.03,.39-2.4,.49-4.43,1.6-6.03,3.28-.79-4.04-3.19-6.9-7.02-8.26-6.15-2.17-9.97-.39-12.16,1.67-.22-.5-.51-.98-.91-1.41-.73-.8-2.11-1.72-4.5-1.54-1.47,.1-2.7,.54-3.64,1.28,.31-2.56,1.99-12.12,10.21-9.94,2.29,.61,3.12,2.06,3.34,3.48-.43,1.93-.08,2.28-.08,2.28,0,0,.35-.51,.08-2.28,.79-3.58,3.08-8.44,9.82-7.04,8.51,1.77,4.88,8.78,4.88,8.78,0,0,2.76-3.59,6.64,.56,3.89,4.13-.07,8.38-.07,8.38,0,0,1.48-.09,3.48,.38Z" fill="#f1b760"/><path d="M684.89,391.39c-.14,0-.29-.02-.43-.06-.55-.16-.97-.62-1.08-1.19-.69-3.54-2.72-5.93-6.02-7.1-4.42-1.56-7.98-1.11-10.59,1.34-.37,.35-.88,.49-1.37,.39-.49-.1-.91-.44-1.11-.9-.16-.38-.37-.7-.62-.97-.74-.8-1.84-1.16-3.25-1.05-1.15,.08-2.09,.4-2.8,.96-.49,.39-1.17,.44-1.71,.13-.54-.31-.85-.91-.78-1.53,.27-2.25,1.31-7.76,5.07-10.31,1.98-1.34,4.36-1.66,7.07-.94,1.01,.27,1.88,.71,2.57,1.28,2-4.11,5.69-5.86,10.51-4.86,3.15,.65,5.26,2.06,6.26,4.17,.51,1.07,.65,2.17,.61,3.17,.12-.01,.24-.02,.36-.03,1.76-.08,3.47,.75,5.1,2.48,2.66,2.83,2.43,5.87,1.48,8.09,.36,.06,.75,.13,1.16,.23,.77,.18,1.28,.92,1.18,1.71-.1,.77-.76,1.34-1.53,1.34-.02,0-.03,0-.05,0-1.12-.03-2.36,.09-3.67,.36-2.08,.43-3.84,1.38-5.22,2.83-.3,.31-.7,.48-1.12,.48Zm-12.3-12.35c1.69,0,3.61,.31,5.79,1.08,3.54,1.26,6.04,3.65,7.33,6.99,1.29-.89,2.74-1.54,4.35-1.94,.07-.15,.16-.3,.28-.43,.3-.32,2.86-3.31,.07-6.27-.66-.71-1.66-1.55-2.67-1.51-.96,.03-1.62,.84-1.63,.85-.5,.62-1.39,.76-2.05,.33-.66-.43-.9-1.29-.53-2,0-.02,1.14-2.29,.27-4.1-.57-1.18-1.95-2.01-4.09-2.46-1.56-.33-6.29-1.31-7.94,5.59,.22,1.76-.07,2.65-.37,3.08-.26,.38-.67,.62-1.13,.67-.46,.04-.91-.12-1.23-.44-.61-.61-.74-1.69-.41-3.39-.24-1.02-.93-1.65-2.16-1.98-1.83-.49-3.32-.32-4.54,.51-1.71,1.16-2.66,3.42-3.18,5.32,.46-.1,.94-.17,1.45-.2,2.99-.23,4.77,.98,5.74,2.03,.06,.06,.11,.12,.16,.18,1.6-1.08,3.73-1.93,6.5-1.93Z" fill="#1a1a1a"/></g><g><path d="M600.21,377.08c-7.97-4.64-14.73,1.27-14.73,1.27,0,0,.55-5.78-5.05-6.68-5.61-.9-5.61,3.61-5.61,3.61,0,0-1.38-7.77-9.21-3.97-7.98,3.87-4.36,9.56-2.97,11.31-.78-.76-2.54-1.9-5.29-.47-2.32,1.21-3.52,2.82-4.03,4.53,2.11-.61,4.53-.64,7.23-.09,2.4,.49,4.43,1.6,6.03,3.28,.79-4.04,3.19-6.9,7.02-8.26,6.15-2.17,9.97-.39,12.16,1.67,.22-.5,.51-.98,.91-1.41,.73-.8,2.11-1.72,4.5-1.54,1.58,.11,2.87,.61,3.84,1.44,.92-1.78,2.51-3.6,5.29-4.61-.04-.02-.07-.04-.11-.06Zm-37.56,5.54c.23,.23,.38,.42,.42,.49-.06-.06-.22-.23-.42-.49Z" fill="#f1b760"/><path d="M566.59,391.39c-.42,0-.82-.17-1.12-.48-1.38-1.45-3.14-2.4-5.22-2.83-2.44-.5-4.63-.47-6.49,.06-.54,.16-1.13,0-1.52-.39-.4-.4-.55-.99-.39-1.53,.68-2.32,2.29-4.15,4.79-5.46,1.03-.54,1.97-.79,2.8-.85-.37-1.18-.53-2.52-.21-3.92,.57-2.48,2.49-4.53,5.7-6.09,2.9-1.41,5.43-1.58,7.51-.52,1.05,.54,1.84,1.32,2.41,2.14,.08-.08,.17-.16,.26-.24,1.34-1.14,3.21-1.53,5.56-1.15,3.82,.62,5.49,3.15,6.1,5.48,3.34-1.8,8.71-3.08,14.22,.13h.01s.1,.07,.11,.07c.51,.31,.8,.88,.75,1.47-.06,.59-.45,1.1-1.01,1.31-2,.73-3.5,2.03-4.45,3.87-.22,.42-.61,.72-1.08,.81-.47,.09-.95-.04-1.3-.35-.73-.63-1.71-.99-2.94-1.07-1.78-.13-2.75,.49-3.25,1.04-.27,.29-.47,.61-.63,.98-.2,.46-.61,.8-1.1,.9-.49,.1-1.01-.04-1.37-.38-2.61-2.45-6.18-2.9-10.59-1.34-3.3,1.17-5.33,3.56-6.02,7.1-.11,.57-.53,1.03-1.08,1.19-.14,.04-.29,.06-.43,.06Zm-9.67-6.75c1.25,0,2.57,.14,3.95,.42,1.83,.38,3.47,1.07,4.9,2.06,1.29-3.34,3.79-5.73,7.33-6.99,5.75-2.03,9.72-.89,12.29,.85,.05-.06,.11-.12,.17-.19,.78-.85,2.57-2.26,5.74-2.03,1.19,.08,2.28,.36,3.23,.83,.64-.9,1.4-1.67,2.28-2.32-5.68-1.67-10.1,2.05-10.32,2.24-.48,.41-1.16,.49-1.72,.2-.56-.29-.89-.89-.83-1.52,.04-.44,.25-4.37-3.76-5.01-.96-.16-2.27-.2-3.05,.44-.74,.61-.77,1.65-.77,1.66-.02,.79-.64,1.45-1.43,1.51-.8,.06-1.5-.48-1.64-1.26,0-.02-.49-2.51-2.27-3.4-1.17-.59-2.77-.4-4.74,.55-2.33,1.13-3.69,2.48-4.04,4-.46,2.01,.9,4.05,1.56,4.9,.17,.17,.45,.49,.61,.77,.37,.67,.19,1.52-.42,1.98s-1.48,.4-2.02-.14c-.13-.13-.3-.33-.47-.55-.89-.82-2.05-.87-3.43-.15-.65,.34-1.21,.72-1.68,1.14,.17,0,.35,0,.53,0Z" fill="#1a1a1a"/></g><g><path d="M675.73,380.97c-4.92-1.12-8.1,.47-10.03,2.29-.22-.5-.51-.98-.91-1.41-.73-.8-2.11-1.72-4.5-1.54-1.47,.1-2.7,.54-3.64,1.28-.07,.05-.14,.11-.2,.16-1.21-2.36-3.62-4.78-8.38-5.32-2.97-.34-5.45,.13-7.4,1.38-.66-1.24-.88-2.77-.13-4.64,2.44-6.1,9.32-.9,9.32-.9,0,0-3.8-9.16,3.46-10.55,7.26-1.38,8.03,6.27,8.03,6.27,0,0,4.18-3.61,8.7,.59,4.52,4.2-.79,7.46-.79,7.46,0,0,5.15,1.18,6.48,4.94Z" fill="#fddb87"/><path d="M665.7,384.8c-.1,0-.21-.01-.31-.03-.49-.1-.91-.44-1.11-.9-.16-.38-.37-.7-.62-.97-.74-.8-1.84-1.16-3.25-1.05-1.15,.08-2.09,.4-2.8,.96-.05,.04-.1,.07-.14,.11-.36,.31-.84,.45-1.31,.36-.47-.09-.87-.39-1.09-.81-1.33-2.59-3.75-4.1-7.18-4.49-2.58-.3-4.74,.09-6.4,1.14-.36,.23-.81,.3-1.22,.19-.42-.11-.77-.39-.97-.77-.96-1.81-1.03-3.87-.2-5.94,.99-2.48,2.62-3.4,3.82-3.73,1.55-.43,3.17-.13,4.53,.37-.26-1.78-.24-3.92,.74-5.74,.65-1.21,2.02-2.75,4.84-3.29,2.54-.48,4.7-.07,6.43,1.22,1.57,1.17,2.43,2.84,2.9,4.18,2.25-.93,5.55-1.12,8.74,1.85,1.7,1.58,2.47,3.28,2.29,5.06-.12,1.18-.64,2.17-1.24,2.94,1.83,.86,4.12,2.42,5.04,5.01,.19,.53,.07,1.12-.3,1.54-.38,.42-.95,.6-1.5,.48-3.53-.8-6.43-.16-8.63,1.91-.29,.27-.67,.42-1.06,.42Zm-4.81-6.07c2.57,0,4.14,1.09,5.03,2.06,.06,.06,.11,.12,.16,.18,1.51-1.02,3.55-1.86,6.18-1.92-1.55-1.08-3.34-1.51-3.36-1.52-.61-.14-1.07-.64-1.17-1.26-.1-.62,.18-1.24,.71-1.56,.48-.3,1.76-1.35,1.87-2.53,.07-.77-.37-1.6-1.32-2.48-3.47-3.23-6.51-.67-6.64-.56-.44,.38-1.05,.48-1.58,.27-.54-.21-.91-.71-.97-1.28,0-.02-.33-2.86-2.21-4.25-1.02-.75-2.32-.97-3.99-.65-1.32,.25-2.2,.81-2.69,1.72-1.12,2.06-.11,5.55,.37,6.72,.26,.64,.07,1.39-.49,1.81-.55,.43-1.32,.43-1.87,0-.84-.63-3.41-2.15-5.18-1.66-.77,.22-1.35,.84-1.77,1.9-.26,.66-.38,1.28-.35,1.86,1.91-.75,4.13-.99,6.63-.7,4.56,.52,7.19,2.61,8.69,4.69,.95-.47,2.04-.75,3.25-.83,.24-.02,.48-.03,.71-.03Z" fill="#1a1a1a"/><path d="M662.05,377.4c-.22,0-.45-.05-.67-.15-1.84-.88-2.31-1.78-2.62-2.63-.12-.31-.15-.4-.75-.68-1.23-.58-2.24,.58-2.35,.72-.54,.65-1.51,.76-2.17,.23-.66-.53-.77-1.49-.25-2.15,.89-1.13,3.31-2.91,6.09-1.58,1.6,.76,2.02,1.6,2.32,2.39,.12,.33,.19,.51,1.06,.93,.77,.37,1.1,1.29,.73,2.06-.27,.55-.82,.88-1.4,.88Z" fill="#1a1a1a"/></g><g><path d="M712.91,410.68c-.67,1.41-1.78,2.69-3.25,3.85-16.03,3.89-47.08,4.29-82.75,4.29-38.45,0-71.51-.51-86.21-5.27-.92-.89-1.65-1.85-2.13-2.87,0,0-3.17-12.41,7.93-13,0,0,1.13-12.19,13.76-9.6,4.44,.91,6.62,4.06,7.69,6.87-.42-4.16,.25-9.81,6.19-11.91,9.59-3.39,12.55,3.92,12.72,4.36-.06-.4-.89-5.93,4.23-5.56,3.31,.24,4.16,2.42,4.32,4.03,.29-2.57,1.71-7.16,8.18-7.9,9.05-1.02,9.67,6.5,9.67,6.5,0,0-.48-6.93,6.97-7.37,2.44-.15,4.23,.49,5.52,1.39,1.29-.9,3.08-1.54,5.52-1.39,7.45,.44,6.97,7.37,6.97,7.37,0,0,.63-7.52,9.67-6.5,6.47,.73,7.9,5.33,8.18,7.9,.16-1.61,1-3.79,4.32-4.03,5.12-.36,4.29,5.16,4.23,5.56,.17-.44,3.13-7.75,12.72-4.36,5.94,2.1,6.61,7.74,6.19,11.91,1.07-2.81,3.25-5.96,7.69-6.87,12.63-2.59,13.76,9.6,13.76,9.6,11.1,.59,7.93,13,7.93,13Z" fill="#fddb87"/><path d="M712.87,399.88c-1.48-2.02-3.68-3.23-6.56-3.62-.42-1.92-1.59-5.56-4.77-7.92-1.84-1.37-4.05-2.09-6.59-2.15-1.26-.04-2.61,.09-4.03,.39-2.4,.49-4.43,1.6-6.03,3.28-.79-4.04-3.19-6.9-7.02-8.26-.74-.26-1.45-.47-2.13-.62-4.92-1.12-8.1,.47-10.03,2.29-.22-.5-.51-.98-.91-1.41-.73-.8-2.11-1.72-4.5-1.54-1.15,.08-2.16,.37-3,.85-.22,.13-.44,.28-.64,.43-.07,.05-.14,.11-.2,.16-.6-1.17-1.51-2.36-2.84-3.32-.05-.04-.1-.08-.15-.1-1.33-.93-3.08-1.63-5.39-1.89-2.97-.34-5.45,.13-7.4,1.38-.28,.18-.55,.38-.8,.59-.49,.4-.9,.83-1.24,1.27-.25-.45-.56-.9-.94-1.33-1.48-1.68-3.62-2.63-6.33-2.79-2.12-.12-3.99,.25-5.61,1.12-1.61-.87-3.49-1.24-5.61-1.12-2.71,.16-4.84,1.1-6.33,2.79-.38,.42-.69,.87-.94,1.33-.35-.44-.76-.87-1.24-1.27-2.06-1.68-4.81-2.34-8.21-1.96-1.16,.13-2.19,.38-3.08,.7-2.78,1.01-4.37,2.83-5.29,4.61-.97-.83-2.26-1.34-3.84-1.44-2.39-.18-3.77,.74-4.5,1.54-.4,.43-.7,.91-.91,1.41-1.75-1.65-4.54-3.11-8.73-2.53-1.05,.15-2.19,.42-3.43,.86-3.83,1.36-6.24,4.22-7.02,8.26-1.6-1.68-3.63-2.78-6.03-3.28-2.7-.55-5.12-.52-7.23,.09-1.24,.36-2.37,.91-3.39,1.67-3.18,2.36-4.35,6-4.77,7.92-2.87,.39-5.08,1.61-6.56,3.62-3.23,4.39-1.61,10.91-1.55,11.18,.02,.1,.06,.19,.1,.29,.56,1.16,1.38,2.27,2.46,3.31,.17,.16,.37,.29,.59,.36,15.24,4.94,49.71,5.35,86.69,5.35,34.41,0,66.66-.33,83.12-4.33,.22-.05,.42-.15,.59-.29,1.69-1.33,2.94-2.8,3.7-4.4,.04-.09,.08-.19,.1-.29,.07-.27,1.68-6.79-1.55-11.18Zm-1.42,10.28c-.52,1.04-1.35,2.02-2.48,2.95-16.23,3.85-48.08,4.16-82.06,4.16-36.44,0-70.39-.39-85.38-5.08-.64-.66-1.14-1.34-1.49-2.03-.19-.87-1.07-5.55,1.07-8.45,1.13-1.53,2.91-2.34,5.47-2.47,.76-.05,1.38-.64,1.45-1.4,0-.05,.49-4.61,3.77-7.02,.39-.29,.82-.54,1.27-.75,1.85-.86,4.15-1.01,6.87-.46,3.11,.63,5.31,2.62,6.55,5.9,.28,.73,1.04,1.14,1.8,.96,.75-.18,1.26-.89,1.18-1.66-.54-5.42,1.2-8.89,5.17-10.29,.72-.25,1.39-.44,2.02-.57,6.46-1.32,8.51,3.43,8.74,4.03,.29,.73,1.08,1.14,1.85,.93,.76-.2,1.24-.95,1.13-1.72-.13-.83-.15-2.45,.58-3.24,.15-.16,.59-.65,2.01-.56,1.82,.14,2.72,.95,2.89,2.64,.08,.79,.74,1.38,1.53,1.39h0c.79,0,1.45-.59,1.54-1.38,.28-2.52,1.57-5.6,6.03-6.41,.25-.05,.51-.08,.78-.12,2.52-.29,4.5,.14,5.87,1.25,1.85,1.5,2.09,3.82,2.09,3.84,.07,.84,.8,1.47,1.65,1.41,.84-.06,1.48-.79,1.44-1.64-.03-.55-.15-5.39,5.52-5.73,1.8-.12,3.33,.26,4.54,1.11,.53,.37,1.24,.37,1.78,0,1.21-.85,2.74-1.22,4.54-1.11,5.66,.33,5.56,5.18,5.52,5.72-.06,.84,.57,1.58,1.41,1.65,.83,.06,1.58-.56,1.66-1.4,0-.02,.25-2.35,2.09-3.85,.28-.22,.59-.43,.92-.59,1.28-.66,2.94-.88,4.95-.66,5.1,.58,6.53,3.87,6.82,6.53,.05,.44,.28,.82,.61,1.06,.25,.2,.58,.32,.93,.32h0c.79,0,1.45-.6,1.53-1.39,.09-.82,.33-1.44,.79-1.86,.47-.46,1.17-.7,2.1-.77,1.41-.11,1.86,.39,2.01,.55,.73,.79,.71,2.4,.58,3.24-.12,.77,.37,1.52,1.14,1.72,.76,.2,1.55-.2,1.84-.93,.24-.63,2.5-5.86,9.81-3.76,.3,.08,.62,.18,.94,.29,3.97,1.41,5.71,4.88,5.17,10.3-.08,.77,.43,1.48,1.18,1.66,.75,.18,1.52-.23,1.8-.96,1.24-3.28,3.45-5.27,6.55-5.9,3.38-.7,6.12-.29,8.14,1.21,3.28,2.41,3.76,6.98,3.77,7.02,.05,.58,.43,1.07,.93,1.28,.16,.07,.33,.12,.52,.12,2.56,.13,4.34,.94,5.47,2.47,2.15,2.91,1.27,7.58,1.07,8.45Z" fill="#1a1a1a"/><path d="M574.04,408.31c-.54,0-1.07-.28-1.35-.79-.83-1.48-1.06-2.74-.72-3.85,.51-1.62,2.04-2.37,3.52-3.09,1.33-.65,2.71-1.31,3.49-2.58,.85-1.38,2.07-2.27,3.54-2.57,3.02-.63,6.04,1.4,6.37,1.63,.7,.49,.87,1.45,.38,2.15-.49,.7-1.45,.87-2.15,.39-.61-.42-2.53-1.45-3.99-1.14-.63,.13-1.12,.5-1.53,1.16-1.26,2.03-3.2,2.98-4.77,3.74-.81,.39-1.82,.88-1.93,1.23-.02,.06-.09,.43,.46,1.41,.42,.74,.15,1.69-.59,2.1-.24,.13-.5,.2-.75,.2Z" fill="#1a1a1a"/><path d="M673.93,408.33c-.63,0-1.21-.38-1.45-1-.79-2.12-5.1-1.74-6.55-1.44-.52,.11-1.05-.06-1.42-.43-.37-.38-.52-.91-.4-1.43,0-.05,.32-2.22-3.22-4.64-3.39-2.32-6.08,.05-6.37,.32-.62,.58-1.6,.56-2.18-.06s-.57-1.58,.04-2.17c1.6-1.55,5.82-3.69,10.26-.65,3.01,2.06,4.07,4.23,4.41,5.77,3.06-.27,7.08,.3,8.33,3.63,.3,.8-.11,1.69-.9,1.99-.18,.07-.36,.1-.54,.1Z" fill="#1a1a1a"/><path d="M607.62,410c-.08,0-.16,0-.24-.02-.84-.13-1.41-.91-1.29-1.75,.36-2.35,2.4-6.64,7.57-6.09,1.89,.2,3.21-.26,4.73-.78,2.15-.75,4.59-1.59,8.71-.7,1.69,.36,3.43,.57,5.11,.77,4.88,.57,9.93,1.17,9.93,6.14,0,.85-.69,1.55-1.55,1.55s-1.55-.69-1.55-1.54c0-2.02-2.19-2.48-7.2-3.07-1.76-.21-3.58-.42-5.4-.82-3.27-.71-5.1-.07-7.05,.6-1.72,.6-3.5,1.21-6.07,.94-3.38-.36-4.08,2.85-4.18,3.49-.12,.76-.78,1.3-1.53,1.3Z" fill="#1a1a1a"/></g><g><path d="M653.46,378.33c-1.33-.93-3.08-1.63-5.39-1.89-2.97-.34-5.45,.13-7.4,1.38-.28,.18-.55,.38-.8,.59-.49,.4-.9,.83-1.24,1.27-.25-.45-.56-.9-.94-1.33-1.48-1.68-3.62-2.63-6.33-2.79-2.12-.12-3.99,.25-5.61,1.12-1.61-.87-3.49-1.24-5.61-1.12-2.71,.16-4.84,1.1-6.33,2.79-.38,.42-.69,.87-.94,1.33-.35-.44-.76-.87-1.24-1.27-2.06-1.68-4.81-2.34-8.21-1.96-1.16,.13-2.19,.38-3.08,.7-2.78,1.01-4.37,2.83-5.29,4.61-.97-.83-2.26-1.34-3.84-1.44-2.39-.18-3.77,.74-4.5,1.54-.4,.43-.7,.91-.91,1.41-1.75-1.65-4.54-3.11-8.73-2.53,.93-3.7,3.81-6.81,10.62-7.23,0,0-.84-11.06,11.62-10.98,11.58,.08,11.07,6.69,11.07,6.69,0,0,.7-5.23,9.57-5.39,7.1-.12,8.38,4.32,8.38,4.32,0,0,3.76-6.74,11.44-5.86,7.67,.88,7.43,8.89,7.43,8.89,0,0,7.66,.36,6.29,7.15Z" fill="#f1b760"/><path d="M585.78,384.8c-.39,0-.77-.15-1.06-.42-1.95-1.83-4.46-2.54-7.46-2.12-.51,.07-1.02-.12-1.37-.5-.34-.38-.47-.91-.35-1.41,.84-3.34,3.38-7.37,10.6-8.27,.14-1.82,.74-4.93,3.07-7.42,2.31-2.48,5.67-3.72,10.08-3.69,4.98,.03,8.59,1.22,10.72,3.54,.29,.31,.53,.62,.74,.94,1.54-1.57,4.28-3.08,9.16-3.17,4.62-.08,7.17,1.6,8.52,3.11,1.91-2.19,5.7-5.31,11.51-4.64,6.26,.72,8.36,5.66,8.74,9.07,1.46,.3,3.74,1.05,5.18,2.9,1.23,1.58,1.61,3.56,1.14,5.91-.1,.51-.46,.94-.94,1.13-.48,.19-1.03,.13-1.46-.17-1.24-.87-2.82-1.41-4.68-1.62-2.59-.3-4.74,.09-6.4,1.14-.21,.13-.43,.29-.65,.48-.36,.3-.71,.65-1.01,1.04-.32,.4-.82,.62-1.33,.58-.51-.04-.97-.33-1.23-.78-.23-.4-.48-.76-.75-1.07-1.21-1.37-2.98-2.14-5.27-2.27-1.82-.11-3.43,.21-4.79,.94-.46,.24-1,.24-1.46,0-1.36-.73-2.97-1.04-4.79-.94-2.28,.14-4.05,.9-5.26,2.27-.29,.32-.54,.68-.75,1.06-.25,.45-.71,.75-1.23,.79-.51,.04-1.02-.18-1.34-.58-.31-.39-.65-.74-1.01-1.04-1.71-1.4-4.09-1.95-7.06-1.62-.98,.11-1.9,.32-2.73,.62-2,.73-3.5,2.03-4.44,3.87-.22,.42-.61,.72-1.08,.81-.47,.09-.95-.04-1.3-.35-.73-.63-1.71-.99-2.94-1.07-1.78-.13-2.75,.49-3.25,1.04-.27,.29-.47,.61-.63,.98-.2,.46-.61,.8-1.1,.9-.1,.02-.21,.03-.32,.03Zm-6.41-5.74c2.57,.1,4.56,.93,6.03,1.92,.05-.06,.11-.13,.17-.19,.78-.85,2.57-2.26,5.74-2.03,1.19,.08,2.28,.36,3.23,.83,1.29-1.8,3.05-3.11,5.25-3.91,1.06-.38,2.22-.65,3.44-.79,3.83-.43,6.98,.35,9.37,2.3,.03,.02,.06,.05,.09,.07,1.76-1.98,4.24-3.08,7.35-3.26,2.09-.12,4,.2,5.7,.94,1.7-.75,3.61-1.07,5.7-.94,3.12,.19,5.59,1.28,7.36,3.26,.03-.02,.06-.05,.09-.07,.32-.26,.64-.5,.95-.7,2.27-1.45,5.1-1.99,8.41-1.61,1.35,.15,2.6,.45,3.72,.9-.11-.44-.3-.82-.56-1.17-1.11-1.44-3.49-1.87-4.31-1.91-.84-.05-1.49-.75-1.47-1.59,.02-.67-.02-6.61-6.06-7.3-6.51-.75-9.78,4.84-9.91,5.08-.31,.54-.91,.85-1.53,.77-.62-.07-1.13-.51-1.31-1.1-.04-.11-1.15-3.3-6.87-3.2-7.3,.13-8.04,3.91-8.07,4.07-.14,.81-.9,1.39-1.72,1.29-.82-.1-1.42-.81-1.35-1.64,0-.03,.04-1.32-1.13-2.55-1.52-1.59-4.43-2.45-8.41-2.48-.04,0-.09,0-.13,0-3.4,0-5.97,.9-7.65,2.69-2.53,2.69-2.29,6.59-2.29,6.63,.03,.41-.11,.82-.38,1.13s-.66,.5-1.07,.53c-4.2,.26-6.97,1.58-8.39,4.02Z" fill="#1a1a1a"/><path d="M593.74,375.9c-.8,0-1.48-.62-1.54-1.43-.26-3.54,2.49-4.27,4.3-4.76,.28-.07,.57-.15,.86-.24,.39-.12,.57-.21,.63-.25,.02-.05,.03-.11,.05-.17,.11-.37,.29-1,.87-1.62,1.37-1.48,3.1-1.16,3.82-.79l-1.42,2.74s.03,.02,.07,.04c-.04-.01-.08-.03-.2,.11-.08,.09-.1,.14-.18,.4-.34,1.14-.91,1.96-2.76,2.51-.32,.1-.64,.18-.94,.26-2.09,.56-2.08,.71-2.02,1.55,.06,.85-.58,1.59-1.43,1.65-.04,0-.08,0-.11,0Z" fill="#1a1a1a"/></g></g></g></g></g></g></g></svg>