<svg xmlns="http://www.w3.org/2000/svg" width="512pt" height="512pt" viewBox="0 -46 512 512"><path d="m481 225c0-34.828125-10.429688-68.210938-30-97.507812v-127.492188h-15c-36.40625 0-68.746094 18.59375-87.601562 47.089844-28.675782-11.1875-60.023438-17.089844-92.398438-17.089844s-63.722656 5.902344-92.398438 17.089844c-18.855468-28.492188-51.191406-47.089844-87.601562-47.089844h-15v127.492188c-19.570312 29.296874-30 62.679687-30 97.507812 0 5.03125.222656 10.035156.652344 15h-31.652344v30h36.984375c3.960937 14.640625 9.855469 28.769531 17.578125 42.152344l-44.472656 19.0625 11.816406 27.570312 50.058594-21.449218c41.050781 50.292968 108.027344 82.664062 184.035156 82.664062 76.039062 0 143.003906-32.394531 184.035156-82.664062l50.054688 21.449218 11.816406-27.570312-44.46875-19.0625c7.722656-13.386719 13.617188-27.511719 17.578125-42.152344h36.984375v-30h-31.652344c.429688-4.964844.652344-9.96875.652344-15zm-60-193.464844v60.84375c-13.539062-12.625-28.527344-23.402344-44.957031-32.410156 11.007812-14.570312 27.085937-24.738281 44.957031-28.433594zm-285.042969 28.433594c-16.429687 9.007812-31.417969 19.785156-44.957031 32.410156v-60.84375c17.871094 3.695313 33.949219 13.863282 44.957031 28.433594zm293.585938 240.230469-32.636719-13.984375-11.816406 27.570312 25.976562 11.136719c-35.65625 39.523437-91.898437 65.078125-155.066406 65.078125s-119.410156-25.554688-155.066406-65.078125l25.976562-11.136719-11.816406-27.570312-32.636719 13.984375c-5.8125-9.566407-10.554687-19.667969-14.085937-30.199219h52.628906v-30h-59.1875c-.527344-4.941406-.8125-9.941406-.8125-15 0-90.980469 87.476562-165 195-165s195 74.019531 195 165c0 5.058594-.285156 10.058594-.8125 15h-59.1875v29.988281h52.628906c-3.53125 10.53125-8.273437 20.644531-14.085937 30.210938zm0 0"/><path d="M286 330c-5.097656 0-10.117188-.9375-15-2.761719v-21.023437l49.804688-49.808594c-3.984376-3.675781-21.109376-38.90625-64.804688-38.90625-43.675781 0-60.824219 35.234375-64.804688 38.90625l49.804688 49.808594v21.023437c-4.882812 1.824219-9.902344 2.761719-15 2.761719-7.914062 0-15.691406-2.078125-22.488281-6.011719l-15.023438 25.96875c11.359375 6.570313 24.328125 10.042969 37.511719 10.042969 10.351562 0 20.410156-2.175781 30-6.476562 9.589844 4.300781 19.648438 6.476562 30 6.476562 13.183594 0 26.152344-3.472656 37.511719-10.042969l-15.023438-25.96875c-6.796875 3.933594-14.574219 6.011719-22.488281 6.011719zm-30-82.5c8.703125 0 16.933594 2.652344 23.78125 7.503906l-23.78125 23.78125-23.78125-23.78125c6.847656-4.851562 15.078125-7.503906 23.78125-7.503906zm0 0M151 180h30v30h-30zm0 0M331 180h30v30h-30zm0 0"/></svg>