<?xml version="1.0" encoding="UTF-8"?><svg id="Layer_2" xmlns="http://www.w3.org/2000/svg" viewBox="0 0 612.28 858.9"><g id="Background"><rect width="612.28" height="858.9" fill="#1a1a1a"/></g><g id="Graphic"><g><g opacity=".43"><path d="M409.32,444.51l-23.09,278.8c0,2.97-5.03,5.73-13.72,8.09-.61,.16-1.25,.33-1.9,.49-7.07,1.75-16.25,3.26-26.92,4.39-.42,.05-.84,.09-1.26,.14-9.05,.93-19.13,1.58-29.88,1.91h-.13c-5.46,.18-11.08,.27-16.84,.27-6.22,0-12.29-.11-18.16-.31-.05,0-.1,0-.15,0-11.44-.38-22.1-1.15-31.53-2.2-.14-.02-.28-.03-.42-.05-11.55-1.31-21.23-3.04-28.22-5.07-.07-.02-.15-.05-.21-.06-7.61-2.24-11.96-4.83-11.96-7.59l-4.2-47.28-16.92-190.35h0s-3.66-41.18-3.66-41.18h229.19Z" fill="#ebe0cb"/><path d="M295.57,740.1c-6.07,0-12.19-.11-18.22-.31-.05,0-.12,0-.21-.01-11.15-.37-21.78-1.11-31.58-2.2l-.19-.02c-.09,0-.18-.02-.27-.03-11.61-1.32-21.46-3.09-28.44-5.12-.02,0-.09-.03-.16-.05-8.76-2.57-13.03-5.51-13.09-8.98l-24.93-280.38h232.46l-23.22,280.37c-.06,3.68-4.91,6.78-14.83,9.47-.62,.17-1.26,.33-1.92,.5-7.2,1.78-16.58,3.31-27.13,4.43-.27,.04-.58,.07-.88,.1l-.38,.04c-9.17,.94-19.25,1.58-29.99,1.92h-.18c-5.41,.18-11.09,.28-16.84,.28Zm-18.11-3.31c11.77,.4,23.76,.41,34.9,.04h.18c10.62-.34,20.64-.98,29.73-1.91l.39-.04c.28-.03,.56-.06,.84-.09,10.45-1.1,19.69-2.61,26.75-4.36,.63-.16,1.26-.32,1.87-.49,12-3.25,12.61-6.1,12.61-6.64v-.12s22.96-277.18,22.96-277.18H181.77l24.65,277.3c0,1.43,2.86,3.8,10.89,6.16l.12,.04c6.9,2.01,16.58,3.75,28.06,5.05l.19,.02c.09,0,.18,.02,.27,.03,9.71,1.08,20.28,1.82,31.38,2.19h.15Zm-.07,0s.02,0,.02,0c0,0-.02,0-.02,0Z" fill="#1a1a1a"/><path d="M316.24,452.99l-3.31,255.31-.35,26.74-.05,3.3h-.13c-5.46,.18-11.08,.27-16.84,.27-6.22,0-12.29-.11-18.16-.31-.05,0-.1,0-.15,0l-.05-3.23-.38-26.71-3.64-255.35h43.04Z" fill="#d94d30"/><path d="M295.57,740.1c-6.07,0-12.19-.11-18.22-.31-.08,0-.24,0-.38-.03l-1.2-.23-.45-31.17-3.66-256.87h46.08l-3.74,288.34h-1.61c-5.41,.18-11.09,.27-16.84,.27Zm-16.83-3.27c10.9,.34,21.95,.35,32.32,.04l.37-28.6,3.29-253.79h-40l3.62,253.83,.41,28.52Zm-1.35-.04s.02,0,.02,0c0,0-.02,0-.02,0Z" fill="#191919"/><path d="M393.56,452.99l-19.86,262.57-1.2,15.84c-.61,.16-1.25,.33-1.9,.49-7.07,1.75-16.25,3.26-26.92,4.39l.02-.39,.98-25.45,9.98-258.13,38.9,.68Z" fill="#d94d30"/><path d="M342.1,737.95l.1-2.14,.98-25.43,10.03-259.59,41.96,.73-.12,1.59-21.14,279.47-1.03,.28c-.62,.17-1.26,.33-1.92,.5-7.2,1.78-16.58,3.31-27.13,4.43l-1.74,.18Zm14-284.12l-10.85,280.76c9.71-1.08,18.32-2.51,24.99-4.17,.28-.07,.56-.14,.84-.22l20.86-275.76-35.85-.62Z" fill="#191919"/><path d="M245.73,736.05v.04c-.14-.02-.28-.03-.42-.05-11.55-1.31-21.23-3.04-28.22-5.07-.07-.02-.15-.05-.21-.06l-1.13-14.84-19.88-262.73,38.9-.68,9.98,257.99,.98,25.41Z" fill="#d94d30"/><path d="M247.23,737.8l-1.85-.25c-.09,0-.18-.02-.27-.03-11.61-1.32-21.46-3.09-28.44-5.12-.02,0-.09-.03-.16-.05l-.96-.31-.16-1.03-1.13-14.84-20-264.32,41.96-.73,.06,1.47,10.96,283.5v1.72Zm-28.94-8.05c6.56,1.83,15.44,3.42,25.87,4.65l-10.83-280.22-35.85,.62,20.81,274.95Z" fill="#191919"/></g><g opacity=".43"><path d="M409.32,444.51l-23.09,278.8c0,2.97-5.03,5.73-13.72,8.09-.61,.16-1.25,.33-1.9,.49-7.07,1.75-16.25,3.26-26.92,4.39-.42,.05-.84,.09-1.26,.14-9.05,.93-19.13,1.58-29.88,1.91h-.13c-5.46,.18-11.08,.27-16.84,.27-6.22,0-12.29-.11-18.16-.31-.05,0-.1,0-.15,0-11.44-.38-22.1-1.15-31.53-2.2-.14-.02-.28-.03-.42-.05-11.55-1.31-21.23-3.04-28.22-5.07-.07-.02-.15-.05-.21-.06-7.61-2.24-11.96-4.83-11.96-7.59l-4.2-47.28s31.06,47.78,101.96,22.51c74.61-26.59,108.24-75.47,83.26-132.3-13.69-31.15-79.99-62.68-131.21-71.33-42.48-7.18-70.94-9.22-70.94-9.22h0s-3.66-41.18-3.66-41.18h229.19Z" fill="#1a1a1a" opacity=".15"/></g><g opacity=".43"><path d="M441.84,460.7s-3.71-12.1,3.13-14.4c8.77-2.95,11.7,10.32,11.7,10.32,0,0,6.1-12.03,13.92-5.17,7.82,6.86-.01,14.33-.01,14.33,0,0,7.62,1.52,6.87,10.17-.75,8.65-8.95,5.57-8.95,5.57,0,0-.1,14.08-9.34,13.89-17.63-.37-16.39-15.13-16.39-15.13,0,0-10.19-2.07-9.88-8.5,.33-6.77,2.66-6.94,8.96-11.08Z" fill="#fcdb87"/><path d="M459.35,497.41c-.08,0-.16,0-.23,0-6.31-.13-11.13-2.01-14.34-5.57-3.15-3.5-3.86-7.71-4-10.02-3.23-.98-10.19-3.82-9.89-10.14,.33-6.72,2.74-8.21,7.13-10.93,.47-.29,.98-.6,1.51-.94-1.28-5.33-1.44-13.31,4.8-15.41,2.59-.87,5.02-.68,7.22,.56,2.81,1.59,4.64,4.66,5.72,7.19,1.61-1.96,3.98-4.1,6.9-4.67,2.68-.52,5.28,.31,7.73,2.47,2.69,2.36,4.09,5.07,4.15,8.06,.06,2.8-1.11,5.23-2.21,6.89,2.98,1.64,6.12,5.09,5.59,11.22-.28,3.19-1.47,5.48-3.55,6.79-1.86,1.17-3.96,1.26-5.57,1.07-.35,2.94-1.38,7.83-4.46,10.82-1.78,1.73-3.97,2.61-6.52,2.61Zm-11.93-49.54c-.58,0-1.18,.11-1.81,.32-4.78,1.61-1.88,11.82-1.85,11.92,.26,.85-.07,1.77-.81,2.26-1.04,.69-1.98,1.27-2.82,1.79-4.15,2.57-5.01,3.1-5.24,7.72-.22,4.55,8.2,6.42,8.28,6.44,.99,.21,1.68,1.12,1.59,2.13,0,.04-.34,5.06,3.02,8.75,2.44,2.69,6.29,4.11,11.43,4.22,1.57,.04,2.82-.45,3.87-1.47,2.76-2.67,3.41-8.44,3.43-10.44,0-.65,.33-1.26,.87-1.63,.54-.37,1.22-.45,1.83-.23,.77,.28,3.1,.81,4.57-.13,.96-.61,1.53-1.87,1.69-3.75,.57-6.59-4.68-7.91-5.28-8.04-.72-.16-1.31-.7-1.51-1.41-.2-.71,0-1.48,.54-1.99,.02-.02,2.94-2.89,2.86-6.26-.04-1.81-.98-3.53-2.79-5.11-1.49-1.31-2.91-1.82-4.33-1.55-3.05,.58-5.72,4.61-6.49,6.12-.38,.75-1.21,1.18-2.04,1.07-.84-.11-1.52-.73-1.7-1.55-.41-1.82-2.13-6.91-5.14-8.61-.68-.38-1.39-.57-2.15-.57Z" fill="#1a1a1a"/><path d="M459.2,482.51c-.64,0-1.33-.13-2.09-.4-2.37-.84-3.69-1.85-4.75-2.65-1.09-.83-1.58-1.2-2.9-1.25-1.1-.04-1.97-.96-1.93-2.07,.04-1.1,.98-1.95,2.07-1.93,2.59,.09,3.91,1.09,5.19,2.06,.93,.7,1.88,1.43,3.67,2.07,.34,.12,.55,.16,.66,.17,.19-.33,.41-1.19,.56-1.77,.38-1.51,.86-3.39,2.19-4.93,1.32-1.53,.74-2.56,.42-2.94-.7-.83-.62-2.09,.2-2.81,.82-.72,2.04-.67,2.77,.13,1.2,1.31,2.67,4.7-.37,8.23-.71,.83-1.03,2.08-1.34,3.3-.41,1.63-.88,3.47-2.53,4.36-.55,.29-1.15,.44-1.82,.44Z" fill="#1a1a1a"/></g><g opacity=".43"><path d="M176.02,733.63c-9.16-3.3-12.82,8.25-24.99-4.64-3.76-3.99-4.89-7.69-4.59-10.92,.69-7.84,9.72-12.95,9.72-12.95,0,0,.71-13.29,11.8-11.09,12.3,2.43,8.38,13.53,8.18,14.1,0,.01-.01,.01-.01,.02,7.6-3.79,12.81-2.28,15.46,3.27,3.44,7.18-2.16,10.01-.08,12.07,6.44,6.4-6.33,13.44-15.49,10.15Z" fill="#fcdb87"/><path d="M161.95,737.27c-3.33,0-7.26-1.5-12.37-6.91-3.8-4.03-5.52-8.22-5.13-12.48,.64-7.29,7.34-12.32,9.82-13.95,.3-2.2,1.37-7.22,5.05-10.08,2.43-1.89,5.47-2.49,9.03-1.79,4.35,.86,7.41,2.81,9.11,5.8,1.35,2.38,1.55,4.94,1.38,7,3.12-1,5.9-1.08,8.32-.25,2.69,.93,4.79,2.92,6.22,5.94,2.44,5.1,.97,8.55,.09,10.61-.15,.34-.33,.78-.41,1.05,2.43,2.52,2.86,5.63,1.13,8.36-2.85,4.51-11.51,7.57-18.85,4.94h0c-2.83-1.02-5-.3-7.51,.53-1.81,.6-3.72,1.23-5.88,1.23Zm3.64-41.5c-1.49,0-2.75,.41-3.8,1.22-3.27,2.53-3.63,8.17-3.63,8.23-.04,.68-.42,1.29-1.01,1.63-.08,.04-8.12,4.71-8.71,11.39-.29,3.07,1.08,6.22,4.05,9.37,6.68,7.08,9.95,6,14.09,4.63,2.81-.93,6-1.98,10.12-.5,5.28,1.9,12.18-.24,14.12-3.31,.51-.81,.89-1.94-.72-3.54-1.8-1.79-.9-3.91-.3-5.31,.77-1.8,1.64-3.85-.02-7.32-.96-2.01-2.28-3.32-3.92-3.88-2.26-.78-5.24-.26-8.84,1.54-.62,.31-1.36,.28-1.95-.09-.59-.36-.95-1.01-.95-1.7,0-.26,.05-.51,.15-.75,.19-.55,1.43-4.51-.3-7.56-1.1-1.93-3.25-3.23-6.41-3.85-.7-.14-1.36-.21-1.98-.21Z" fill="#1a1a1a"/><path d="M164.05,729.04c-1,0-2-.16-2.96-.47-2.75-.91-4.84-3.02-5.73-5.78-.34-1.05,.24-2.18,1.29-2.52,1.05-.34,2.18,.24,2.52,1.29,.5,1.55,1.63,2.69,3.18,3.2,1.69,.56,3.59,.25,5.1-.83,2.77-1.98,5.94-2.08,8.49-2.17,1.61-.05,3.13-.1,3.9-.62,.72-.48,.77-1.19,.15-2.13-.6-.92-.36-2.15,.54-2.77,.91-.61,2.13-.39,2.76,.51,.15,.22,1.46,2.19,1.03,4.45-.25,1.31-1.03,2.44-2.26,3.26-1.72,1.15-3.89,1.22-5.99,1.29-2.22,.07-4.51,.15-6.29,1.42-1.7,1.21-3.71,1.84-5.72,1.84Z" fill="#1a1a1a"/></g><g opacity=".43"><path d="M416.8,450.9c0,11.53-54.66,13.84-122.08,13.84s-122.09-2.31-122.09-13.84c0-2.38,2.34-11.69,6.64-13.84,1.22,.58,2.61,1.11,4.16,1.61,19.02,6.16,61.81,6.82,111.57,6.82,46.17,0,86.36-.51,107.1-5.55,3.28-.79,6.08-1.7,8.33-2.74,4.13,2.1,6.37,11.37,6.37,13.7Z" fill="#ebe0cb"/><path d="M294.72,466.24c-88.94,0-123.59-4.3-123.59-15.34,0-2.35,2.32-12.6,7.47-15.18l.65-.33,.66,.31c1.12,.53,2.42,1.04,3.98,1.54,19.24,6.23,63.54,6.75,111.11,6.75,44.31,0,85.82-.42,106.75-5.51,3.24-.78,5.94-1.67,8.06-2.64l.66-.31,.65,.33c4.96,2.52,7.19,12.7,7.19,15.04,0,11.04-34.65,15.34-123.58,15.34Zm-115.35-27.49c-3.15,2.3-5.24,9.89-5.24,12.15,0,2.47,4.47,7.02,34.4,9.75,19.34,1.77,46.73,2.59,86.19,2.59s66.85-.82,86.19-2.59c29.92-2.73,34.39-7.28,34.39-9.75,0-2.17-2.04-9.75-4.99-12.01-2.16,.93-4.8,1.77-7.86,2.5-21.25,5.16-62.95,5.59-107.45,5.59-47.82,0-92.38-.53-112.03-6.89-1.35-.44-2.54-.88-3.6-1.34Z" fill="#1a1a1a"/></g><g opacity=".43"><g><path d="M383.06,403.26c-1.63-.05-3.38,.12-5.22,.5-3.1,.64-5.73,2.07-7.8,4.24-1.02-5.23-4.13-8.93-9.09-10.69-7.96-2.81-12.9-.51-15.74,2.16-.28-.65-.66-1.27-1.18-1.83-.95-1.03-2.73-2.22-5.82-1.99-1.9,.13-3.49,.7-4.71,1.66,.4-3.31,2.58-15.69,13.22-12.87,2.96,.79,4.04,2.67,4.32,4.51-.55,2.5-.1,2.95-.1,2.95,0,0,.45-.66,.1-2.95,1.02-4.63,3.99-10.92,12.71-9.11,11.02,2.29,6.31,11.36,6.31,11.36,0,0,3.57-4.64,8.59,.72,5.03,5.35-.09,10.85-.09,10.85,0,0,1.92-.12,4.5,.49Z" fill="#f1b760"/><path d="M370.04,410c-.19,0-.38-.03-.56-.08-.72-.21-1.26-.8-1.4-1.54-.89-4.58-3.52-7.67-7.8-9.19-5.72-2.02-10.33-1.44-13.7,1.73-.48,.45-1.14,.63-1.78,.5-.64-.13-1.17-.57-1.43-1.17-.21-.49-.48-.9-.81-1.26-.96-1.04-2.38-1.5-4.21-1.36-1.49,.1-2.71,.52-3.62,1.24-.64,.5-1.51,.57-2.22,.17-.71-.4-1.1-1.18-1-1.98,.35-2.91,1.7-10.04,6.56-13.34,2.57-1.74,5.65-2.15,9.15-1.22,1.31,.35,2.43,.91,3.33,1.66,2.58-5.31,7.37-7.58,13.6-6.29,4.08,.85,6.81,2.66,8.11,5.4,.66,1.39,.84,2.81,.79,4.11,.15-.02,.31-.03,.47-.04,2.28-.11,4.5,.97,6.59,3.21,3.44,3.66,3.15,7.59,1.91,10.46,.47,.08,.97,.17,1.5,.3,1,.24,1.66,1.19,1.52,2.21-.13,1-.98,1.74-1.98,1.74-.02,0-.04,0-.06,0-1.45-.04-3.06,.11-4.75,.46-2.7,.56-4.97,1.79-6.76,3.66-.38,.4-.91,.62-1.45,.62Zm-15.92-15.98c2.18,0,4.67,.41,7.5,1.4,4.58,1.63,7.82,4.72,9.49,9.04,1.67-1.16,3.55-2,5.63-2.51,.09-.2,.21-.39,.36-.55,.38-.42,3.7-4.29,.1-8.12-.86-.92-2.15-2.01-3.45-1.95-1.24,.04-2.1,1.09-2.11,1.1-.65,.8-1.8,.98-2.66,.42-.86-.56-1.16-1.67-.69-2.58,.01-.02,1.48-2.97,.35-5.3-.74-1.53-2.52-2.6-5.3-3.18-2.03-.42-8.14-1.69-10.27,7.24,.29,2.28-.09,3.42-.48,3.99-.33,.49-.87,.81-1.46,.86-.6,.05-1.18-.15-1.6-.57-.79-.79-.96-2.19-.53-4.39-.3-1.31-1.2-2.13-2.8-2.56-2.37-.63-4.29-.41-5.88,.67-2.21,1.5-3.45,4.42-4.12,6.88,.6-.13,1.22-.22,1.87-.26,3.87-.29,6.17,1.27,7.43,2.63,.07,.08,.14,.15,.21,.23,2.06-1.4,4.83-2.5,8.41-2.5Z" fill="#1a1a1a"/></g><g><path d="M260.45,391.47c-10.32-6-19.06,1.64-19.06,1.64,0,0,.71-7.48-6.54-8.65-7.26-1.17-7.26,4.67-7.26,4.67,0,0-1.79-10.05-11.92-5.14-10.33,5.01-5.64,12.37-3.84,14.64-1.01-.98-3.29-2.46-6.84-.61-3,1.57-4.56,3.65-5.21,5.86,2.73-.79,5.86-.83,9.36-.12,3.1,.64,5.73,2.07,7.8,4.24,1.02-5.23,4.13-8.93,9.09-10.69,7.96-2.81,12.9-.5,15.74,2.16,.28-.65,.66-1.27,1.18-1.83,.94-1.03,2.73-2.22,5.82-1.99,2.04,.14,3.72,.79,4.97,1.87,1.19-2.31,3.25-4.66,6.85-5.97-.05-.03-.09-.05-.14-.08Zm-48.61,7.17c.3,.3,.49,.55,.54,.64-.08-.08-.28-.3-.54-.64Z" fill="#f1b760"/><path d="M216.94,410c-.54,0-1.06-.22-1.45-.62-1.79-1.87-4.06-3.1-6.76-3.66-3.16-.64-5.99-.61-8.4,.08-.7,.2-1.46,0-1.97-.51-.52-.52-.71-1.27-.5-1.98,.88-3,2.97-5.38,6.2-7.07,1.33-.7,2.54-1.02,3.62-1.1-.48-1.53-.68-3.26-.27-5.08,.73-3.21,3.22-5.87,7.38-7.88,3.75-1.82,7.02-2.04,9.72-.67,1.36,.7,2.38,1.71,3.12,2.77,.11-.1,.22-.21,.34-.31,1.74-1.48,4.16-1.98,7.2-1.49,4.94,.8,7.11,4.07,7.89,7.09,4.32-2.33,11.27-3.98,18.4,.17h.02s.13,.09,.14,.09c.66,.4,1.04,1.14,.96,1.91-.07,.77-.58,1.43-1.31,1.69-2.59,.94-4.53,2.63-5.76,5.01-.28,.54-.8,.93-1.4,1.05-.6,.12-1.22-.05-1.69-.45-.94-.81-2.22-1.28-3.8-1.39-2.31-.17-3.56,.64-4.21,1.34-.35,.37-.61,.78-.82,1.27-.26,.6-.79,1.03-1.43,1.17-.64,.13-1.3-.05-1.78-.5-3.38-3.17-7.99-3.75-13.71-1.73-4.28,1.52-6.9,4.61-7.79,9.19-.14,.73-.68,1.33-1.4,1.54-.19,.05-.37,.08-.56,.08Zm-12.52-8.74c1.62,0,3.33,.18,5.11,.54,2.37,.49,4.49,1.38,6.34,2.67,1.67-4.32,4.9-7.42,9.48-9.04,7.45-2.63,12.58-1.15,15.91,1.09,.07-.08,.14-.16,.21-.24,1.01-1.1,3.32-2.93,7.43-2.62,1.53,.11,2.95,.47,4.19,1.08,.83-1.16,1.82-2.16,2.95-3.01-7.35-2.16-13.08,2.66-13.35,2.9-.62,.53-1.5,.64-2.23,.26-.73-.38-1.15-1.15-1.08-1.96,.05-.57,.32-5.65-4.87-6.49-1.24-.2-2.94-.26-3.94,.57-.95,.79-1,2.14-1,2.15-.03,1.03-.83,1.88-1.85,1.96-1.03,.07-1.94-.62-2.12-1.63,0-.02-.64-3.24-2.94-4.41-1.52-.76-3.58-.52-6.14,.72-3.02,1.46-4.78,3.21-5.23,5.18-.59,2.6,1.16,5.24,2.02,6.34,.21,.22,.59,.63,.79,1,.48,.87,.25,1.97-.55,2.57s-1.91,.52-2.62-.18c-.17-.17-.39-.43-.61-.71-1.16-1.06-2.65-1.12-4.44-.19-.85,.44-1.57,.93-2.17,1.48,.23,0,.45-.01,.68-.01Z" fill="#1a1a1a"/></g><g><path d="M358.19,396.51c-6.37-1.45-10.48,.61-12.98,2.96-.28-.65-.66-1.27-1.18-1.83-.95-1.03-2.73-2.22-5.82-1.99-1.9,.13-3.49,.7-4.71,1.66-.09,.07-.18,.14-.26,.21-1.57-3.05-4.68-6.18-10.85-6.88-3.84-.44-7.05,.17-9.58,1.78-.85-1.6-1.14-3.59-.17-6.01,3.16-7.9,12.06-1.17,12.06-1.17,0,0-4.92-11.86,4.48-13.65,9.4-1.79,10.39,8.11,10.39,8.11,0,0,5.41-4.67,11.26,.77,5.85,5.43-1.02,9.65-1.02,9.65,0,0,6.67,1.53,8.38,6.39Z" fill="#fddb87"/><path d="M345.21,401.47c-.14,0-.27-.01-.41-.04-.64-.13-1.17-.57-1.43-1.17-.21-.49-.48-.9-.81-1.26-.96-1.04-2.38-1.5-4.21-1.36-1.49,.1-2.71,.52-3.62,1.24-.07,.05-.13,.1-.18,.14-.46,.41-1.09,.58-1.69,.46-.6-.11-1.12-.5-1.41-1.05-1.72-3.35-4.85-5.3-9.3-5.81-3.34-.39-6.13,.11-8.28,1.48-.47,.3-1.05,.39-1.58,.25-.54-.14-.99-.5-1.26-1-1.25-2.35-1.34-5.01-.26-7.69,1.29-3.21,3.4-4.4,4.94-4.83,2.01-.56,4.1-.17,5.86,.47-.34-2.31-.31-5.08,.96-7.42,.84-1.56,2.61-3.57,6.26-4.26,3.29-.63,6.08-.09,8.32,1.58,2.03,1.51,3.14,3.68,3.75,5.41,2.92-1.2,7.19-1.45,11.32,2.39,2.2,2.04,3.19,4.24,2.97,6.55-.15,1.53-.83,2.81-1.6,3.81,2.37,1.12,5.34,3.13,6.52,6.48,.24,.69,.09,1.45-.39,1.99-.49,.54-1.22,.78-1.94,.62-4.57-1.04-8.32-.21-11.17,2.47-.38,.35-.87,.54-1.37,.54Zm-6.22-7.85c3.32,0,5.36,1.42,6.51,2.66,.07,.08,.14,.15,.21,.23,1.96-1.32,4.59-2.4,8-2.49-2-1.4-4.32-1.96-4.35-1.96-.79-.19-1.39-.83-1.52-1.63-.13-.8,.23-1.6,.92-2.02,.62-.39,2.27-1.74,2.42-3.27,.09-.99-.48-2.07-1.71-3.21-4.49-4.17-8.43-.87-8.59-.72-.56,.49-1.35,.62-2.05,.34-.69-.28-1.17-.92-1.25-1.66,0-.03-.43-3.7-2.86-5.5-1.32-.98-3.01-1.25-5.16-.84-1.71,.33-2.85,1.05-3.48,2.22-1.44,2.66-.14,7.18,.48,8.7,.34,.83,.08,1.8-.63,2.35-.71,.55-1.71,.56-2.43,.01-1.08-.81-4.41-2.79-6.7-2.14-.99,.28-1.74,1.08-2.29,2.46-.34,.85-.5,1.65-.46,2.41,2.48-.97,5.35-1.28,8.58-.91,5.9,.67,9.3,3.38,11.25,6.08,1.23-.61,2.64-.97,4.21-1.07,.32-.02,.62-.03,.92-.03Z" fill="#1a1a1a"/><path d="M340.48,391.89c-.29,0-.58-.06-.86-.2-2.38-1.14-2.98-2.31-3.39-3.4-.15-.4-.19-.51-.97-.88-1.59-.75-2.9,.75-3.04,.93-.7,.85-1.95,.98-2.81,.29-.85-.69-1-1.93-.32-2.79,1.15-1.46,4.28-3.76,7.88-2.05,2.06,.98,2.61,2.07,3,3.09,.16,.42,.25,.66,1.37,1.2,1,.48,1.42,1.67,.94,2.67-.34,.72-1.06,1.14-1.81,1.14Z" fill="#1a1a1a"/></g><g><path d="M406.31,434.96c-.87,1.82-2.3,3.48-4.21,4.98-20.74,5.04-60.93,5.55-107.1,5.55-49.76,0-92.55-.66-111.57-6.82-1.19-1.15-2.13-2.39-2.76-3.71,0,0-4.1-16.06,10.26-16.82,0,0,1.46-15.77,17.81-12.42,5.75,1.18,8.57,5.25,9.95,8.89-.54-5.39,.32-12.69,8.01-15.41,12.41-4.39,16.24,5.07,16.46,5.64-.08-.52-1.15-7.67,5.47-7.2,4.29,.31,5.38,3.13,5.59,5.21,.37-3.32,2.21-9.27,10.59-10.22,11.71-1.32,12.52,8.41,12.52,8.41,0,0-.62-8.97,9.02-9.54,3.16-.19,5.47,.63,7.14,1.8,1.67-1.17,3.98-1.99,7.14-1.8,9.64,.57,9.02,9.54,9.02,9.54,0,0,.81-9.73,12.52-8.41,8.38,.95,10.22,6.9,10.59,10.22,.21-2.08,1.3-4.9,5.59-5.21,6.62-.47,5.55,6.68,5.47,7.2,.22-.57,4.05-10.03,16.46-5.64,7.69,2.72,8.55,10.02,8.01,15.41,1.38-3.64,4.2-7.71,9.95-8.89,16.35-3.35,17.81,12.42,17.81,12.42,14.36,.76,10.26,16.82,10.26,16.82Z" fill="#fddb87"/><path d="M406.25,420.98c-1.92-2.61-4.76-4.18-8.49-4.69-.54-2.49-2.06-7.2-6.17-10.25-2.38-1.77-5.24-2.7-8.53-2.78-1.63-.05-3.38,.12-5.22,.5-3.1,.64-5.73,2.07-7.8,4.24-1.02-5.23-4.13-8.93-9.09-10.69-.96-.34-1.88-.61-2.76-.8-6.37-1.45-10.48,.61-12.98,2.96-.28-.65-.66-1.27-1.18-1.83-.95-1.03-2.73-2.22-5.82-1.99-1.49,.1-2.8,.48-3.88,1.1-.29,.17-.57,.36-.83,.56-.09,.07-.18,.14-.26,.21-.78-1.51-1.95-3.06-3.68-4.3-.06-.05-.13-.1-.19-.13-1.72-1.2-3.99-2.11-6.98-2.45-3.84-.44-7.05,.17-9.58,1.78-.36,.23-.71,.49-1.04,.76-.63,.52-1.16,1.08-1.61,1.65-.33-.58-.73-1.17-1.22-1.72-1.92-2.18-4.68-3.4-8.19-3.61-2.74-.16-5.17,.33-7.26,1.45-2.09-1.12-4.52-1.61-7.26-1.45-3.51,.21-6.27,1.43-8.19,3.61-.49,.55-.89,1.13-1.22,1.72-.45-.57-.98-1.13-1.61-1.65-2.66-2.18-6.23-3.03-10.63-2.54-1.5,.17-2.83,.49-3.99,.91-3.6,1.31-5.66,3.66-6.85,5.97-1.25-1.08-2.93-1.73-4.97-1.87-3.09-.23-4.88,.96-5.82,1.99-.52,.56-.9,1.18-1.18,1.83-2.27-2.13-5.88-4.03-11.3-3.27-1.36,.19-2.84,.54-4.44,1.11-4.96,1.76-8.07,5.46-9.09,10.69-2.07-2.17-4.7-3.6-7.8-4.24-3.5-.71-6.63-.67-9.36,.12-1.6,.46-3.07,1.18-4.39,2.16-4.11,3.05-5.63,7.76-6.17,10.25-3.72,.51-6.57,2.08-8.49,4.69-4.18,5.68-2.09,14.12-2,14.47,.03,.13,.08,.25,.13,.37,.72,1.5,1.79,2.94,3.18,4.29,.22,.21,.48,.37,.77,.46,19.73,6.39,64.33,6.92,112.19,6.92,44.53,0,86.27-.43,107.57-5.61,.28-.06,.54-.19,.76-.37,2.19-1.72,3.8-3.63,4.79-5.69,.05-.12,.1-.24,.13-.37,.09-.35,2.18-8.79-2-14.47Zm-1.84,13.3c-.67,1.34-1.75,2.62-3.21,3.82-21.01,4.98-62.22,5.39-106.2,5.39-47.16,0-91.1-.51-110.5-6.58-.83-.85-1.48-1.73-1.93-2.63-.25-1.12-1.39-7.18,1.39-10.94,1.46-1.98,3.77-3.03,7.08-3.2,.98-.06,1.78-.83,1.88-1.81,0-.06,.64-5.97,4.88-9.09,.51-.38,1.06-.7,1.65-.97,2.39-1.11,5.37-1.31,8.89-.59,4.02,.82,6.87,3.39,8.48,7.64,.36,.94,1.35,1.47,2.33,1.24,.97-.23,1.63-1.15,1.53-2.15-.7-7.02,1.55-11.51,6.69-13.32,.93-.33,1.8-.57,2.61-.74,8.36-1.71,11.02,4.44,11.31,5.21,.37,.95,1.4,1.48,2.39,1.21,.98-.26,1.61-1.23,1.46-2.23-.17-1.08-.2-3.17,.75-4.19,.19-.21,.77-.84,2.6-.72,2.36,.18,3.52,1.23,3.74,3.42,.1,1.02,.96,1.79,1.98,1.8h.01c1.02,0,1.88-.77,1.99-1.78,.36-3.26,2.03-7.25,7.81-8.3,.32-.06,.66-.11,1.01-.15,3.26-.37,5.82,.18,7.6,1.62,2.39,1.94,2.7,4.95,2.71,4.97,.09,1.09,1.04,1.9,2.13,1.82,1.09-.08,1.92-1.02,1.86-2.12-.04-.71-.19-6.98,7.14-7.41,2.33-.15,4.31,.34,5.87,1.44,.69,.48,1.61,.48,2.3,0,1.56-1.1,3.54-1.58,5.87-1.44,7.33,.43,7.19,6.7,7.15,7.4-.08,1.09,.74,2.04,1.83,2.13,1.07,.08,2.05-.72,2.15-1.81,.01-.03,.32-3.04,2.71-4.98,.36-.29,.76-.55,1.19-.77,1.66-.86,3.81-1.14,6.4-.85,6.6,.75,8.45,5.01,8.83,8.45,.06,.57,.36,1.06,.79,1.37,.33,.26,.75,.41,1.2,.41h.01c1.02-.01,1.88-.78,1.98-1.8,.11-1.06,.43-1.86,1.02-2.41,.61-.59,1.51-.91,2.72-1,1.83-.14,2.41,.5,2.6,.71,.95,1.02,.92,3.11,.75,4.19-.15,1,.48,1.97,1.47,2.23,.98,.26,2.01-.26,2.38-1.21,.31-.82,3.23-7.58,12.7-4.86,.39,.1,.8,.23,1.22,.38,5.14,1.82,7.39,6.31,6.69,13.33-.1,1,.56,1.92,1.53,2.15,.97,.23,1.97-.3,2.33-1.24,1.61-4.25,4.46-6.82,8.48-7.64,4.37-.9,7.92-.37,10.54,1.56,4.24,3.12,4.87,9.03,4.88,9.08,.07,.75,.55,1.38,1.21,1.66,.21,.09,.43,.15,.67,.16,3.31,.17,5.62,1.22,7.08,3.2,2.78,3.76,1.64,9.81,1.39,10.94Z" fill="#1a1a1a"/><path d="M226.59,431.88c-.7,0-1.38-.37-1.75-1.02-1.07-1.91-1.38-3.54-.93-4.98,.66-2.1,2.64-3.07,4.56-4,1.72-.84,3.5-1.7,4.52-3.34,1.1-1.78,2.68-2.93,4.58-3.32,3.91-.81,7.81,1.81,8.25,2.11,.91,.63,1.13,1.88,.5,2.78-.63,.9-1.87,1.13-2.78,.5-.79-.55-3.27-1.87-5.16-1.48-.82,.17-1.45,.65-1.98,1.51-1.62,2.63-4.15,3.86-6.17,4.84-1.05,.51-2.35,1.14-2.49,1.6-.03,.08-.12,.55,.6,1.82,.54,.96,.2,2.18-.77,2.72-.31,.17-.65,.26-.98,.26Z" fill="#1a1a1a"/><path d="M355.86,431.91c-.81,0-1.57-.5-1.87-1.3-1.03-2.74-6.61-2.25-8.48-1.86-.67,.14-1.36-.07-1.84-.56-.48-.49-.67-1.18-.52-1.85,0-.06,.41-2.87-4.17-6.01-4.38-3-7.87,.06-8.25,.42-.8,.75-2.07,.72-2.82-.07s-.74-2.05,.05-2.81c2.08-2.01,7.53-4.77,13.28-.84,3.9,2.67,5.27,5.48,5.71,7.47,3.96-.35,9.16,.39,10.78,4.7,.39,1.03-.14,2.19-1.17,2.57-.23,.09-.47,.13-.7,.13Z" fill="#1a1a1a"/><path d="M270.05,434.07c-.1,0-.21,0-.31-.02-1.09-.17-1.83-1.18-1.67-2.27,.46-3.04,3.11-8.6,9.79-7.88,2.44,.26,4.15-.33,6.13-1.02,2.79-.97,5.95-2.06,11.27-.91,2.18,.47,4.44,.74,6.62,.99,6.32,.74,12.85,1.51,12.85,7.95,0,1.1-.9,2-2,2s-2-.9-2-2c0-2.61-2.84-3.22-9.32-3.98-2.27-.27-4.63-.54-6.99-1.06-4.23-.91-6.61-.09-9.12,.78-2.23,.77-4.53,1.57-7.86,1.21-4.37-.47-5.27,3.68-5.41,4.52-.16,.98-1.01,1.68-1.97,1.68Z" fill="#1a1a1a"/></g><g><path d="M329.37,393.09c-1.72-1.2-3.99-2.11-6.98-2.45-3.84-.44-7.05,.17-9.58,1.78-.36,.23-.71,.49-1.04,.76-.63,.52-1.16,1.08-1.61,1.65-.33-.58-.73-1.17-1.22-1.72-1.92-2.18-4.68-3.4-8.19-3.61-2.74-.16-5.17,.33-7.26,1.45-2.09-1.12-4.52-1.61-7.26-1.45-3.51,.21-6.27,1.43-8.19,3.61-.49,.55-.89,1.13-1.22,1.72-.45-.57-.98-1.13-1.61-1.65-2.66-2.18-6.23-3.03-10.63-2.54-1.5,.17-2.83,.49-3.99,.91-3.6,1.31-5.66,3.66-6.85,5.97-1.25-1.08-2.93-1.73-4.97-1.87-3.09-.23-4.88,.96-5.82,1.99-.52,.56-.9,1.18-1.18,1.83-2.27-2.13-5.88-4.03-11.3-3.27,1.21-4.79,4.93-8.82,13.74-9.36,0,0-1.09-14.32,15.04-14.21,14.99,.1,14.33,8.66,14.33,8.66,0,0,.9-6.77,12.39-6.97,9.19-.16,10.85,5.59,10.85,5.59,0,0,4.86-8.72,14.8-7.58,9.93,1.14,9.61,11.5,9.61,11.5,0,0,9.91,.47,8.14,9.26Z" fill="#f1b760"/><path d="M241.77,401.47c-.5,0-.99-.19-1.37-.54-2.52-2.37-5.77-3.29-9.65-2.75-.66,.09-1.32-.15-1.77-.64-.44-.5-.61-1.18-.45-1.83,1.09-4.32,4.38-9.54,13.71-10.7,.18-2.36,.96-6.38,3.97-9.6,2.99-3.21,7.34-4.82,13.05-4.78,6.45,.04,11.12,1.58,13.87,4.58,.37,.4,.69,.81,.95,1.21,1.99-2.03,5.54-3.99,11.85-4.1,5.98-.11,9.29,2.07,11.02,4.03,2.47-2.84,7.38-6.87,14.89-6.01,8.1,.93,10.83,7.32,11.31,11.74,1.9,.39,4.83,1.35,6.7,3.75,1.59,2.04,2.09,4.61,1.47,7.65-.13,.66-.59,1.21-1.22,1.46-.62,.25-1.34,.17-1.89-.22-1.61-1.12-3.65-1.83-6.06-2.1-3.35-.39-6.13,.11-8.28,1.48-.27,.17-.56,.38-.85,.62-.47,.39-.91,.84-1.31,1.34-.41,.52-1.07,.81-1.72,.75-.66-.05-1.26-.43-1.59-1-.3-.52-.62-.99-.98-1.38-1.57-1.78-3.86-2.77-6.81-2.94-2.36-.14-4.43,.27-6.2,1.22-.59,.32-1.3,.32-1.89,0-1.76-.94-3.84-1.35-6.2-1.22-2.96,.18-5.25,1.16-6.81,2.94-.37,.42-.7,.88-.97,1.37-.33,.58-.92,.97-1.59,1.02-.67,.06-1.31-.23-1.73-.75-.4-.5-.84-.95-1.31-1.35-2.22-1.82-5.29-2.52-9.14-2.1-1.27,.14-2.46,.41-3.53,.8-2.59,.94-4.53,2.63-5.75,5.01-.28,.54-.8,.93-1.4,1.05-.6,.12-1.22-.05-1.69-.45-.94-.81-2.22-1.28-3.8-1.39-2.31-.17-3.56,.64-4.21,1.34-.35,.37-.61,.78-.82,1.27-.26,.6-.79,1.03-1.43,1.17-.14,.03-.27,.04-.41,.04Zm-8.3-7.43c3.33,.12,5.9,1.2,7.8,2.48,.07-.08,.14-.16,.22-.24,1.01-1.1,3.32-2.93,7.43-2.62,1.53,.11,2.95,.47,4.19,1.08,1.67-2.32,3.95-4.02,6.8-5.06,1.37-.5,2.87-.84,4.45-1.02,4.96-.55,9.04,.45,12.12,2.98,.04,.03,.08,.06,.11,.1,2.28-2.56,5.48-3.98,9.52-4.23,2.71-.16,5.18,.25,7.38,1.22,2.2-.97,4.67-1.38,7.38-1.22,4.03,.24,7.24,1.66,9.52,4.23,.04-.03,.07-.06,.11-.09,.42-.34,.83-.64,1.24-.9,2.94-1.87,6.6-2.57,10.88-2.08,1.75,.2,3.36,.59,4.82,1.16-.14-.56-.38-1.06-.73-1.51-1.44-1.86-4.52-2.42-5.58-2.48-1.08-.06-1.93-.97-1.9-2.06,.02-.87-.03-8.55-7.84-9.45-8.43-.96-12.65,6.27-12.83,6.57-.4,.7-1.17,1.1-1.98,1-.8-.09-1.47-.65-1.69-1.43-.05-.14-1.49-4.28-8.89-4.15-9.45,.17-10.41,5.06-10.45,5.27-.18,1.05-1.17,1.79-2.22,1.66-1.06-.13-1.83-1.05-1.75-2.12,0-.04,.05-1.7-1.47-3.3-1.96-2.06-5.73-3.17-10.88-3.21-.06,0-.11,0-.17,0-4.4,0-7.73,1.17-9.9,3.48-3.27,3.48-2.96,8.53-2.96,8.58,.04,.53-.14,1.06-.49,1.46s-.85,.65-1.38,.68c-5.43,.33-9.02,2.04-10.86,5.21Z" fill="#1a1a1a"/><path d="M252.08,389.95c-1.04,0-1.92-.8-1.99-1.85-.34-4.58,3.22-5.53,5.57-6.16,.36-.1,.73-.2,1.11-.31,.51-.15,.73-.27,.81-.33,.03-.07,.04-.14,.06-.22,.14-.48,.38-1.29,1.13-2.1,1.77-1.92,4.01-1.51,4.94-1.02l-1.84,3.55s.03,.02,.1,.05c-.05-.02-.1-.03-.26,.14-.11,.11-.13,.18-.23,.52-.43,1.48-1.18,2.53-3.57,3.25-.41,.12-.82,.23-1.22,.34-2.7,.72-2.69,.92-2.61,2,.08,1.1-.75,2.06-1.85,2.14-.05,0-.1,0-.15,0Z" fill="#1a1a1a"/></g></g></g></g><g id="Text"><path d="M557.95,0V858.9h54.33V0h-54.33Zm39.53,819.69c0,3.28-2.66,5.94-5.94,5.94h-21.36c-3.28,0-5.94-2.66-5.94-5.94v-35.52c0-3.28,2.66-5.94,5.94-5.94h21.36c3.28,0,5.94,2.66,5.94,5.94v35.52Zm0-67.72c0,3.28-2.66,5.94-5.94,5.94h-21.36c-3.28,0-5.94-2.66-5.94-5.94v-35.52c0-3.28,2.66-5.94,5.94-5.94h21.36c3.28,0,5.94,2.66,5.94,5.94v35.52Zm0-67.72c0,3.28-2.66,5.94-5.94,5.94h-21.36c-3.28,0-5.94-2.66-5.94-5.94v-35.52c0-3.28,2.66-5.94,5.94-5.94h21.36c3.28,0,5.94,2.66,5.94,5.94v35.52Zm0-67.72c0,3.28-2.66,5.94-5.94,5.94h-21.36c-3.28,0-5.94-2.66-5.94-5.94v-35.52c0-3.28,2.66-5.94,5.94-5.94h21.36c3.28,0,5.94,2.66,5.94,5.94v35.52Zm0-67.72c0,3.28-2.66,5.94-5.94,5.94h-21.36c-3.28,0-5.94-2.66-5.94-5.94v-35.52c0-3.28,2.66-5.94,5.94-5.94h21.36c3.28,0,5.94,2.66,5.94,5.94v35.52Zm0-67.72c0,3.28-2.66,5.94-5.94,5.94h-21.36c-3.28,0-5.94-2.66-5.94-5.94v-35.52c0-3.28,2.66-5.94,5.94-5.94h21.36c3.28,0,5.94,2.66,5.94,5.94v35.52Zm0-67.72c0,3.28-2.66,5.94-5.94,5.94h-21.36c-3.28,0-5.94-2.66-5.94-5.94v-35.52c0-3.28,2.66-5.94,5.94-5.94h21.36c3.28,0,5.94,2.66,5.94,5.94v35.52Zm0-67.72c0,3.28-2.66,5.94-5.94,5.94h-21.36c-3.28,0-5.94-2.66-5.94-5.94v-35.52c0-3.28,2.66-5.94,5.94-5.94h21.36c3.28,0,5.94,2.66,5.94,5.94v35.52Zm0-67.72c0,3.28-2.66,5.94-5.94,5.94h-21.36c-3.28,0-5.94-2.66-5.94-5.94v-35.52c0-3.28,2.66-5.94,5.94-5.94h21.36c3.28,0,5.94,2.66,5.94,5.94v35.52Zm0-67.72c0,3.28-2.66,5.94-5.94,5.94h-21.36c-3.28,0-5.94-2.66-5.94-5.94v-35.52c0-3.28,2.66-5.94,5.94-5.94h21.36c3.28,0,5.94,2.66,5.94,5.94v35.52Zm0-67.72c0,3.28-2.66,5.94-5.94,5.94h-21.36c-3.28,0-5.94-2.66-5.94-5.94v-35.52c0-3.28,2.66-5.94,5.94-5.94h21.36c3.28,0,5.94,2.66,5.94,5.94v35.52Zm0-67.72c0,3.28-2.66,5.94-5.94,5.94h-21.36c-3.28,0-5.94-2.66-5.94-5.94V39.21c0-3.28,2.66-5.94,5.94-5.94h21.36c3.28,0,5.94,2.66,5.94,5.94v35.52Z" fill="#5c5c5c"/><path d="M0,0V858.9H54.33V0H0ZM48.04,819.69c0,3.28-2.66,5.94-5.94,5.94H20.74c-3.28,0-5.94-2.66-5.94-5.94v-35.52c0-3.28,2.66-5.94,5.94-5.94h21.36c3.28,0,5.94,2.66,5.94,5.94v35.52Zm0-67.72c0,3.28-2.66,5.94-5.94,5.94H20.74c-3.28,0-5.94-2.66-5.94-5.94v-35.52c0-3.28,2.66-5.94,5.94-5.94h21.36c3.28,0,5.94,2.66,5.94,5.94v35.52Zm0-67.72c0,3.28-2.66,5.94-5.94,5.94H20.74c-3.28,0-5.94-2.66-5.94-5.94v-35.52c0-3.28,2.66-5.94,5.94-5.94h21.36c3.28,0,5.94,2.66,5.94,5.94v35.52Zm0-67.72c0,3.28-2.66,5.94-5.94,5.94H20.74c-3.28,0-5.94-2.66-5.94-5.94v-35.52c0-3.28,2.66-5.94,5.94-5.94h21.36c3.28,0,5.94,2.66,5.94,5.94v35.52Zm0-67.72c0,3.28-2.66,5.94-5.94,5.94H20.74c-3.28,0-5.94-2.66-5.94-5.94v-35.52c0-3.28,2.66-5.94,5.94-5.94h21.36c3.28,0,5.94,2.66,5.94,5.94v35.52Zm0-67.72c0,3.28-2.66,5.94-5.94,5.94H20.74c-3.28,0-5.94-2.66-5.94-5.94v-35.52c0-3.28,2.66-5.94,5.94-5.94h21.36c3.28,0,5.94,2.66,5.94,5.94v35.52Zm0-67.72c0,3.28-2.66,5.94-5.94,5.94H20.74c-3.28,0-5.94-2.66-5.94-5.94v-35.52c0-3.28,2.66-5.94,5.94-5.94h21.36c3.28,0,5.94,2.66,5.94,5.94v35.52Zm0-67.72c0,3.28-2.66,5.94-5.94,5.94H20.74c-3.28,0-5.94-2.66-5.94-5.94v-35.52c0-3.28,2.66-5.94,5.94-5.94h21.36c3.28,0,5.94,2.66,5.94,5.94v35.52Zm0-67.72c0,3.28-2.66,5.94-5.94,5.94H20.74c-3.28,0-5.94-2.66-5.94-5.94v-35.52c0-3.28,2.66-5.94,5.94-5.94h21.36c3.28,0,5.94,2.66,5.94,5.94v35.52Zm0-67.72c0,3.28-2.66,5.94-5.94,5.94H20.74c-3.28,0-5.94-2.66-5.94-5.94v-35.52c0-3.28,2.66-5.94,5.94-5.94h21.36c3.28,0,5.94,2.66,5.94,5.94v35.52Zm0-67.72c0,3.28-2.66,5.94-5.94,5.94H20.74c-3.28,0-5.94-2.66-5.94-5.94v-35.52c0-3.28,2.66-5.94,5.94-5.94h21.36c3.28,0,5.94,2.66,5.94,5.94v35.52Zm0-67.72c0,3.28-2.66,5.94-5.94,5.94H20.74c-3.28,0-5.94-2.66-5.94-5.94V39.21c0-3.28,2.66-5.94,5.94-5.94h21.36c3.28,0,5.94,2.66,5.94,5.94v35.52Z" fill="#5c5c5c"/><g><text transform="translate(183.93 148.4)" fill="#fff" font-family="SuezOne-Regular, &apos;Suez One&apos;" font-size="72"><tspan x="0" y="0">chillFLIX</tspan></text><g><path d="M138.54,92.32c-17.88,0-32.38,14.5-32.38,32.38s14.5,32.38,32.38,32.38,32.38-14.5,32.38-32.38-14.5-32.38-32.38-32.38Zm0,2.37c5.83,0,10.56,4.73,10.56,10.56s-4.73,10.56-10.56,10.56-10.56-4.73-10.56-10.56,4.73-10.56,10.56-10.56Zm6.14,30.01c0,3.39-2.75,6.14-6.14,6.14s-6.14-2.75-6.14-6.14,2.75-6.14,6.14-6.14,6.14,2.75,6.14,6.14Zm-25.6,10.56c-5.83,0-10.56-4.73-10.56-10.56s4.73-10.56,10.56-10.56,10.56,4.73,10.56,10.56-4.73,10.56-10.56,10.56Zm19.46,19.46c-5.83,0-10.56-4.73-10.56-10.56s4.73-10.56,10.56-10.56,10.56,4.73,10.56,10.56-4.73,10.56-10.56,10.56Zm19.46-19.46c-5.83,0-10.56-4.73-10.56-10.56s4.73-10.56,10.56-10.56,10.56,4.73,10.56,10.56-4.73,10.56-10.56,10.56Z" fill="#ebe0cb"/><circle cx="138.54" cy="124.7" r="6.14" fill="#1a1a1a"/><circle cx="138.54" cy="105.24" r="10.56" transform="translate(-20.47 34.64) rotate(-13.28)" fill="#1a1a1a"/><circle cx="138.54" cy="144.15" r="10.56" transform="translate(-21.3 24.05) rotate(-9.22)" fill="#1a1a1a"/><circle cx="119.08" cy="124.7" r="10.56" transform="translate(-25.46 30.69) rotate(-13.28)" fill="#1a1a1a"/><circle cx="157.99" cy="124.7" r="10.56" fill="#1a1a1a"/></g></g></g></svg>