<?xml version="1.0" encoding="UTF-8"?><svg id="Layer_2" xmlns="http://www.w3.org/2000/svg" viewBox="0 0 421 623"><g id="Text"><g><rect width="421" height="623" fill="#1a1a1a"/><g><g><path d="M284.13,211.59l-16.98,204.97c0,2.18-3.7,4.22-10.09,5.95-.45,.12-.92,.24-1.39,.36-5.2,1.29-11.95,2.4-19.79,3.23-.31,.04-.62,.07-.93,.1-6.65,.68-14.06,1.16-21.97,1.41h-.09c-4.01,.13-8.15,.2-12.38,.2-4.57,0-9.04-.08-13.35-.23-.03,0-.07,0-.11,0-8.41-.28-16.25-.84-23.18-1.62-.1-.01-.21-.02-.31-.03-8.49-.96-15.61-2.24-20.75-3.73-.05-.01-.11-.03-.15-.05-5.6-1.64-8.8-3.55-8.8-5.58l-3.09-34.76-12.44-139.94h0s-2.69-30.27-2.69-30.27h168.5Z" fill="#ebe0cb"/><path d="M200.5,428.91c-4.46,0-8.97-.08-13.39-.23-.03,0-.09,0-.15,0-8.2-.27-16.01-.82-23.22-1.62l-.14-.02c-.07,0-.13-.01-.2-.02-8.54-.97-15.78-2.27-20.91-3.76-.01,0-.07-.02-.12-.04-6.44-1.89-9.58-4.05-9.63-6.6l-18.33-206.13h170.9l-17.07,206.13c-.04,2.71-3.61,4.99-10.9,6.96-.46,.12-.93,.25-1.41,.37-5.3,1.31-12.19,2.43-19.95,3.25-.2,.03-.42,.05-.65,.07l-.28,.03c-6.74,.69-14.16,1.17-22.05,1.41h-.13c-3.98,.13-8.15,.2-12.38,.2Zm-13.31-2.43c8.65,.29,17.47,.3,25.66,.03h.13c7.81-.25,15.17-.72,21.86-1.4l.29-.03c.2-.02,.41-.04,.61-.07,7.68-.81,14.48-1.92,19.67-3.2,.47-.12,.93-.24,1.37-.36,8.82-2.39,9.27-4.49,9.27-4.88v-.09s16.88-203.78,16.88-203.78H116.83l18.12,203.87c0,1.05,2.1,2.79,8,4.53l.09,.03c5.08,1.48,12.19,2.75,20.63,3.71l.14,.02c.07,0,.13,.01,.2,.02,7.14,.8,14.91,1.34,23.07,1.61h.11Zm-.05,0s.01,0,.02,0c0,0-.01,0-.02,0Z" fill="#1a1a1a"/><path d="M215.7,217.82l-2.43,187.7-.26,19.66-.03,2.42h-.09c-4.01,.13-8.15,.2-12.38,.2-4.57,0-9.04-.08-13.35-.23-.03,0-.07,0-.11,0l-.03-2.38-.28-19.64-2.67-187.73h31.65Z" fill="#d94d30"/><path d="M200.5,428.91c-4.46,0-8.97-.08-13.39-.23-.06,0-.18,0-.28-.03l-.88-.17-.33-22.91-2.69-188.85h33.88l-2.75,211.99h-1.18c-3.98,.13-8.15,.2-12.38,.2Zm-12.37-2.4c8.01,.25,16.14,.26,23.76,.03l.27-21.03,2.42-186.58h-29.41l2.66,186.61,.3,20.97Zm-.99-.03s.01,0,.02,0c0,0-.01,0-.02,0Z" fill="#191919"/><path d="M272.54,217.82l-14.6,193.04-.88,11.64c-.45,.12-.92,.24-1.39,.36-5.2,1.29-11.95,2.4-19.79,3.23v-.29s.73-18.71,.73-18.71l7.33-189.77,28.6,.5Z" fill="#d94d30"/><path d="M234.71,427.33l.07-1.57,.72-18.7,7.38-190.85,30.85,.54-.09,1.17-15.54,205.46-.75,.2c-.46,.12-.93,.25-1.41,.37-5.3,1.31-12.19,2.43-19.95,3.25l-1.28,.13Zm10.29-208.88l-7.97,206.42c7.14-.79,13.47-1.85,18.37-3.06,.21-.05,.41-.11,.62-.16l15.34-202.73-26.35-.46Z" fill="#191919"/><path d="M163.86,425.93v.03c-.1-.01-.21-.02-.31-.03-8.49-.96-15.61-2.24-20.75-3.73-.05-.01-.11-.03-.15-.05l-.83-10.91-14.61-193.16,28.6-.5,7.33,189.67,.72,18.68Z" fill="#d94d30"/><path d="M164.96,427.22l-1.36-.18c-.07,0-.13-.01-.2-.02-8.54-.97-15.78-2.27-20.91-3.76-.01,0-.07-.02-.12-.04l-.71-.23-.12-.76-.83-10.91-14.7-194.33,30.85-.54,.04,1.08,8.06,208.42v1.26Zm-21.28-5.92c4.83,1.34,11.35,2.52,19.02,3.42l-7.96-206.02-26.35,.46,15.3,202.14Z" fill="#191919"/></g><path d="M284.13,211.59l-16.98,204.97c0,2.18-3.7,4.22-10.09,5.95-.45,.12-.92,.24-1.39,.36-5.2,1.29-11.95,2.4-19.79,3.23-.31,.04-.62,.07-.93,.1-6.65,.68-14.06,1.16-21.97,1.41h-.09c-4.01,.13-8.15,.2-12.38,.2-4.57,0-9.04-.08-13.35-.23-.03,0-.07,0-.11,0-8.41-.28-16.25-.84-23.18-1.62-.1-.01-.21-.02-.31-.03-8.49-.96-15.61-2.24-20.75-3.73-.05-.01-.11-.03-.15-.05-5.6-1.64-8.8-3.55-8.8-5.58l-3.09-34.76s22.83,35.13,74.96,16.55c54.85-19.55,79.58-55.49,61.21-97.27-10.07-22.9-58.81-46.08-96.46-52.44-31.23-5.28-52.15-6.78-52.15-6.78h0s-2.69-30.27-2.69-30.27h168.5Z" fill="#1a1a1a" opacity=".15"/><g><path d="M308.04,223.49s-2.73-8.9,2.3-10.59c6.45-2.17,8.6,7.59,8.6,7.59,0,0,4.49-8.84,10.23-3.8s0,10.53,0,10.53c0,0,5.6,1.12,5.05,7.48-.55,6.36-6.58,4.1-6.58,4.1,0,0-.07,10.35-6.87,10.21-12.96-.27-12.05-11.13-12.05-11.13,0,0-7.49-1.52-7.26-6.25,.24-4.98,1.96-5.1,6.59-8.15Z" fill="#fcdb87"/><path d="M320.91,250.49c-.06,0-.11,0-.17,0-4.64-.1-8.19-1.48-10.55-4.1-2.32-2.57-2.84-5.67-2.94-7.36-2.38-.72-7.49-2.81-7.27-7.45,.24-4.94,2.02-6.04,5.24-8.03,.35-.21,.72-.44,1.11-.69-.94-3.92-1.06-9.79,3.53-11.33,1.9-.64,3.69-.5,5.31,.41,2.07,1.17,3.41,3.43,4.21,5.28,1.18-1.44,2.92-3.02,5.08-3.43,1.97-.38,3.88,.23,5.68,1.81,1.98,1.74,3.01,3.73,3.05,5.92,.04,2.06-.81,3.84-1.63,5.07,2.19,1.2,4.5,3.74,4.11,8.25-.2,2.35-1.08,4.03-2.61,4.99-1.37,.86-2.91,.93-4.09,.79-.26,2.16-1.02,5.76-3.28,7.96-1.31,1.27-2.92,1.92-4.79,1.92Zm-8.77-36.42c-.42,0-.87,.08-1.33,.24-3.51,1.18-1.39,8.69-1.36,8.76,.19,.62-.05,1.3-.6,1.66-.77,.51-1.46,.93-2.07,1.31-3.05,1.89-3.69,2.28-3.85,5.68-.16,3.35,6.03,4.72,6.09,4.73,.73,.15,1.23,.82,1.17,1.56,0,.03-.25,3.72,2.22,6.43,1.8,1.98,4.62,3.02,8.4,3.1,1.15,.03,2.07-.33,2.85-1.08,2.03-1.97,2.51-6.2,2.52-7.67,0-.48,.24-.93,.64-1.2,.4-.27,.9-.33,1.35-.17,.56,.2,2.28,.59,3.36-.09,.71-.45,1.13-1.38,1.24-2.76,.42-4.84-3.44-5.81-3.88-5.91-.53-.11-.96-.51-1.11-1.04-.15-.52,0-1.09,.39-1.46,.02-.02,2.16-2.13,2.1-4.6-.03-1.33-.72-2.59-2.05-3.76-1.1-.96-2.14-1.34-3.18-1.14-2.25,.43-4.21,3.39-4.77,4.5-.28,.55-.89,.87-1.5,.79-.62-.08-1.11-.53-1.25-1.14-.3-1.34-1.56-5.08-3.78-6.33-.5-.28-1.02-.42-1.58-.42Z" fill="#1a1a1a"/><path d="M320.8,239.53c-.47,0-.98-.1-1.53-.3-1.74-.62-2.71-1.36-3.49-1.95-.8-.61-1.16-.88-2.13-.92-.81-.03-1.45-.71-1.42-1.52,.03-.81,.72-1.43,1.52-1.42,1.91,.06,2.88,.8,3.81,1.52,.68,.52,1.38,1.05,2.7,1.52,.25,.09,.4,.12,.49,.12,.14-.25,.3-.87,.41-1.3,.28-1.11,.63-2.49,1.61-3.62,.97-1.12,.54-1.88,.31-2.16-.51-.61-.45-1.54,.15-2.06,.6-.53,1.5-.49,2.04,.09,.88,.96,1.96,3.46-.27,6.05-.52,.61-.76,1.53-.98,2.42-.3,1.2-.65,2.55-1.86,3.2-.4,.22-.85,.32-1.34,.32Z" fill="#1a1a1a"/></g><g><path d="M112.61,424.15c-6.73-2.43-9.43,6.07-18.37-3.41-2.77-2.93-3.6-5.65-3.37-8.03,.51-5.76,7.14-9.52,7.14-9.52,0,0,.52-9.77,8.68-8.15,9.04,1.79,6.16,9.95,6.01,10.37,0,0,0,0,0,.02,5.59-2.79,9.42-1.68,11.36,2.4,2.53,5.28-1.59,7.36-.06,8.87,4.73,4.7-4.65,9.88-11.39,7.46Z" fill="#fcdb87"/><path d="M102.26,426.82c-2.45,0-5.34-1.1-9.1-5.08-2.79-2.96-4.06-6.05-3.77-9.17,.47-5.36,5.4-9.06,7.22-10.25,.22-1.62,1.01-5.31,3.71-7.41,1.79-1.39,4.02-1.83,6.64-1.31,3.2,.63,5.45,2.07,6.7,4.27,.99,1.75,1.14,3.63,1.02,5.15,2.29-.73,4.34-.8,6.12-.19,1.98,.68,3.52,2.15,4.58,4.37,1.8,3.75,.71,6.29,.06,7.8-.11,.25-.24,.57-.3,.77,1.79,1.85,2.1,4.14,.83,6.15-2.09,3.31-8.46,5.57-13.86,3.63h0c-2.08-.75-3.67-.22-5.52,.39-1.33,.44-2.74,.9-4.33,.9Zm2.68-30.51c-1.1,0-2.02,.3-2.79,.9-2.4,1.86-2.67,6.01-2.67,6.05-.03,.5-.31,.95-.74,1.2-.06,.03-5.97,3.46-6.4,8.37-.21,2.26,.79,4.57,2.98,6.89,4.91,5.2,7.31,4.41,10.36,3.4,2.07-.68,4.41-1.46,7.44-.36,3.88,1.39,8.95-.17,10.38-2.43,.37-.59,.65-1.43-.53-2.6-1.33-1.31-.66-2.87-.22-3.9,.57-1.33,1.21-2.83-.01-5.38-.71-1.48-1.67-2.44-2.88-2.85-1.66-.57-3.85-.19-6.5,1.13-.46,.23-1,.2-1.43-.06-.43-.27-.7-.74-.7-1.25,0-.19,.04-.38,.11-.55,.14-.4,1.05-3.32-.22-5.55-.81-1.42-2.39-2.37-4.71-2.83-.52-.1-1-.15-1.46-.15Z" fill="#1a1a1a"/><path d="M103.81,420.77c-.74,0-1.47-.11-2.18-.35-2.02-.67-3.56-2.22-4.21-4.25-.25-.77,.18-1.6,.95-1.85,.77-.25,1.6,.18,1.85,.95,.37,1.14,1.2,1.98,2.33,2.35,1.24,.41,2.64,.18,3.75-.61,2.03-1.45,4.37-1.53,6.24-1.59,1.18-.04,2.3-.08,2.87-.46,.53-.35,.57-.88,.11-1.56-.44-.67-.27-1.58,.4-2.04,.67-.45,1.57-.29,2.03,.37,.11,.16,1.07,1.61,.75,3.27-.18,.97-.76,1.8-1.66,2.4-1.26,.84-2.86,.9-4.4,.95-1.63,.05-3.32,.11-4.63,1.05-1.25,.89-2.73,1.35-4.2,1.35Z" fill="#1a1a1a"/></g><g><path d="M289.63,216.29c0,8.48-40.19,10.18-89.75,10.18s-89.76-1.7-89.76-10.18c0-1.75,1.72-8.59,4.88-10.18,.9,.43,1.92,.82,3.06,1.18,13.98,4.53,45.44,5.01,82.03,5.01,33.94,0,63.49-.37,78.74-4.08,2.41-.58,4.47-1.25,6.12-2.01,3.04,1.54,4.68,8.36,4.68,10.07Z" fill="#ebe0cb"/><path d="M199.88,227.56c-65.39,0-90.86-3.16-90.86-11.28,0-1.73,1.7-9.27,5.49-11.16l.48-.24,.49,.23c.82,.39,1.78,.76,2.92,1.13,14.15,4.58,46.71,4.96,81.69,4.96,32.58,0,63.09-.31,78.48-4.05,2.38-.57,4.37-1.23,5.92-1.94l.49-.22,.48,.24c3.65,1.85,5.29,9.34,5.29,11.06,0,8.12-25.47,11.28-90.85,11.28Zm-84.81-20.21c-2.31,1.69-3.85,7.27-3.85,8.93,0,1.81,3.29,5.16,25.29,7.17,14.22,1.3,34.35,1.9,63.37,1.9s49.15-.6,63.36-1.9c22-2.01,25.29-5.35,25.29-7.17,0-1.6-1.5-7.17-3.67-8.83-1.59,.68-3.53,1.3-5.78,1.84-15.62,3.8-46.28,4.11-79,4.11-35.16,0-67.92-.39-82.37-5.07-1-.32-1.87-.65-2.65-.99Z" fill="#1a1a1a"/></g><g><g><path d="M264.82,181.26c-1.2-.04-2.48,.09-3.84,.37-2.28,.47-4.21,1.52-5.73,3.12-.75-3.85-3.04-6.57-6.68-7.86-5.85-2.07-9.48-.37-11.57,1.59-.21-.48-.49-.93-.87-1.35-.7-.76-2.01-1.63-4.28-1.46-1.4,.1-2.57,.51-3.46,1.22,.29-2.43,1.9-11.54,9.72-9.46,2.18,.58,2.97,1.96,3.18,3.32-.4,1.84-.07,2.17-.07,2.17,0,0,.33-.48,.07-2.17,.75-3.4,2.93-8.03,9.34-6.7,8.1,1.68,4.64,8.35,4.64,8.35,0,0,2.62-3.41,6.32,.53,3.7,3.93-.07,7.98-.07,7.98,0,0,1.41-.09,3.31,.36Z" fill="#f1b760"/><path d="M255.25,186.22c-.14,0-.28-.02-.41-.06-.53-.15-.93-.59-1.03-1.13-.66-3.37-2.58-5.64-5.73-6.75-4.2-1.48-7.6-1.06-10.07,1.27-.35,.33-.84,.46-1.31,.37-.47-.1-.86-.42-1.05-.86-.16-.36-.35-.66-.59-.93-.7-.76-1.75-1.1-3.09-1-1.1,.08-1.99,.38-2.66,.91-.47,.37-1.11,.42-1.63,.13-.52-.29-.81-.87-.74-1.46,.26-2.14,1.25-7.38,4.83-9.81,1.89-1.28,4.15-1.58,6.73-.9,.96,.26,1.79,.67,2.45,1.22,1.9-3.91,5.41-5.57,10-4.62,3,.62,5,1.96,5.96,3.97,.48,1.02,.62,2.07,.58,3.02,.11-.01,.23-.02,.34-.03,1.68-.08,3.31,.71,4.85,2.36,2.53,2.69,2.31,5.58,1.41,7.69,.35,.06,.72,.13,1.1,.22,.73,.17,1.22,.88,1.12,1.62-.1,.73-.72,1.28-1.46,1.28-.02,0-.03,0-.05,0-1.06-.03-2.25,.08-3.5,.34-1.98,.41-3.65,1.32-4.97,2.69-.28,.3-.67,.46-1.06,.46Zm-11.7-11.75c1.61,0,3.44,.3,5.51,1.03,3.37,1.2,5.75,3.47,6.97,6.65,1.23-.85,2.61-1.47,4.14-1.84,.06-.15,.15-.28,.27-.41,.28-.31,2.72-3.15,.07-5.97-.63-.67-1.58-1.48-2.54-1.44-.91,.03-1.54,.8-1.55,.81-.48,.59-1.32,.72-1.95,.31-.63-.41-.85-1.23-.51-1.9,0-.02,1.09-2.18,.26-3.9-.54-1.13-1.85-1.91-3.89-2.34-1.49-.31-5.99-1.24-7.55,5.32,.21,1.67-.07,2.52-.35,2.93-.25,.36-.64,.59-1.07,.63-.44,.04-.87-.11-1.17-.42-.58-.58-.71-1.61-.39-3.23-.22-.97-.88-1.57-2.06-1.88-1.74-.46-3.16-.3-4.32,.49-1.63,1.1-2.53,3.25-3.03,5.06,.44-.1,.9-.16,1.38-.19,2.84-.22,4.54,.93,5.46,1.93,.05,.06,.1,.11,.15,.17,1.52-1.03,3.55-1.83,6.19-1.83Z" fill="#1a1a1a"/></g><g><path d="M174.68,172.59c-7.59-4.41-14.01,1.21-14.01,1.21,0,0,.52-5.5-4.81-6.36-5.34-.86-5.34,3.43-5.34,3.43,0,0-1.32-7.39-8.76-3.78-7.59,3.68-4.15,9.09-2.82,10.76-.74-.72-2.42-1.81-5.03-.45-2.21,1.15-3.35,2.68-3.83,4.31,2.01-.58,4.31-.61,6.88-.09,2.28,.47,4.21,1.52,5.73,3.12,.75-3.85,3.04-6.57,6.68-7.86,5.85-2.07,9.48-.37,11.57,1.59,.21-.48,.49-.93,.87-1.35,.69-.76,2.01-1.63,4.28-1.46,1.5,.1,2.73,.58,3.65,1.37,.87-1.7,2.39-3.43,5.04-4.39-.04-.02-.07-.04-.1-.06Zm-35.74,5.27c.22,.22,.36,.4,.4,.47-.06-.06-.21-.22-.4-.47Z" fill="#f1b760"/><path d="M142.69,186.22c-.4,0-.78-.16-1.06-.46-1.31-1.38-2.98-2.28-4.97-2.69-2.33-.47-4.4-.45-6.18,.06-.52,.15-1.07,0-1.45-.38-.38-.38-.52-.94-.37-1.45,.65-2.2,2.18-3.95,4.56-5.2,.98-.51,1.87-.75,2.66-.81-.35-1.13-.5-2.4-.2-3.73,.54-2.36,2.36-4.31,5.43-5.8,2.76-1.34,5.16-1.5,7.14-.49,1,.51,1.75,1.26,2.29,2.04,.08-.08,.16-.15,.25-.23,1.28-1.09,3.06-1.46,5.29-1.1,3.63,.59,5.23,2.99,5.8,5.21,3.18-1.72,8.28-2.93,13.53,.12h.01s.1,.06,.11,.07c.49,.29,.76,.84,.71,1.4-.05,.57-.43,1.05-.96,1.24-1.91,.69-3.33,1.93-4.23,3.68-.21,.4-.59,.68-1.03,.77-.44,.09-.9-.04-1.24-.33-.69-.6-1.63-.94-2.79-1.02-1.7-.12-2.62,.47-3.09,.99-.25,.27-.45,.58-.6,.94-.19,.44-.58,.76-1.05,.86-.47,.1-.96-.04-1.31-.37-2.49-2.33-5.88-2.76-10.08-1.27-3.14,1.12-5.07,3.39-5.73,6.75-.11,.54-.5,.98-1.03,1.13-.14,.04-.27,.06-.41,.06Zm-9.2-6.43c1.19,0,2.45,.13,3.76,.4,1.74,.36,3.3,1.02,4.66,1.96,1.23-3.18,3.61-5.45,6.97-6.65,5.47-1.93,9.25-.85,11.7,.8,.05-.06,.1-.12,.16-.18,.74-.81,2.44-2.15,5.46-1.93,1.13,.08,2.17,.35,3.08,.79,.61-.85,1.34-1.59,2.17-2.21-5.4-1.59-9.61,1.96-9.82,2.13-.45,.39-1.1,.47-1.64,.19-.53-.28-.85-.85-.79-1.44,.03-.42,.23-4.15-3.58-4.77-.91-.15-2.16-.19-2.9,.42-.7,.58-.73,1.57-.73,1.58-.02,.75-.61,1.38-1.36,1.44-.76,.05-1.43-.46-1.56-1.2,0-.02-.47-2.39-2.16-3.24-1.11-.56-2.63-.38-4.51,.53-2.22,1.08-3.51,2.36-3.84,3.81-.44,1.91,.86,3.86,1.48,4.66,.16,.16,.43,.46,.58,.74,.36,.64,.18,1.45-.4,1.89s-1.41,.38-1.92-.13c-.12-.12-.29-.31-.45-.52-.85-.78-1.95-.82-3.26-.14-.62,.33-1.15,.69-1.6,1.08,.17,0,.33,0,.5,0Z" fill="#1a1a1a"/></g><g><path d="M246.54,176.3c-4.68-1.07-7.7,.45-9.54,2.18-.21-.48-.49-.93-.87-1.35-.7-.76-2.01-1.63-4.28-1.46-1.4,.1-2.57,.51-3.46,1.22-.07,.05-.13,.1-.19,.15-1.15-2.24-3.44-4.54-7.98-5.06-2.82-.32-5.18,.12-7.04,1.31-.62-1.18-.84-2.64-.12-4.42,2.32-5.81,8.87-.86,8.87-.86,0,0-3.62-8.72,3.29-10.04,6.91-1.32,7.64,5.96,7.64,5.96,0,0,3.98-3.43,8.28,.57,4.3,3.99-.75,7.09-.75,7.09,0,0,4.9,1.12,6.16,4.7Z" fill="#fddb87"/><path d="M237,179.95c-.1,0-.2-.01-.3-.03-.47-.1-.86-.42-1.05-.86-.16-.36-.35-.66-.59-.93-.7-.76-1.75-1.1-3.09-1-1.1,.08-1.99,.38-2.66,.91-.05,.04-.09,.07-.13,.1-.34,.3-.8,.42-1.24,.34-.44-.08-.83-.37-1.03-.77-1.27-2.46-3.57-3.9-6.84-4.27-2.46-.28-4.51,.08-6.09,1.09-.35,.22-.77,.28-1.16,.18-.4-.1-.73-.37-.92-.73-.92-1.73-.98-3.68-.19-5.66,.94-2.36,2.5-3.23,3.63-3.55,1.48-.41,3.01-.13,4.31,.35-.25-1.69-.23-3.73,.7-5.46,.62-1.15,1.92-2.62,4.6-3.13,2.42-.46,4.47-.07,6.12,1.16,1.49,1.11,2.31,2.7,2.76,3.98,2.14-.88,5.28-1.07,8.32,1.76,1.61,1.5,2.35,3.12,2.18,4.81-.11,1.12-.61,2.07-1.18,2.8,1.74,.82,3.92,2.3,4.79,4.77,.18,.51,.07,1.07-.29,1.47-.36,.4-.9,.57-1.42,.46-3.36-.76-6.12-.15-8.21,1.81-.28,.26-.64,.4-1.01,.4Zm-4.57-5.77c2.44,0,3.94,1.04,4.79,1.96,.05,.06,.1,.11,.15,.17,1.44-.97,3.38-1.77,5.88-1.83-1.47-1.03-3.17-1.44-3.2-1.44-.58-.14-1.02-.61-1.12-1.2-.09-.59,.17-1.18,.68-1.49,.45-.29,1.67-1.28,1.78-2.4,.07-.73-.35-1.52-1.26-2.36-3.3-3.07-6.2-.64-6.32-.53-.41,.36-.99,.46-1.51,.25-.51-.2-.86-.67-.92-1.22,0-.02-.31-2.72-2.1-4.05-.97-.72-2.21-.92-3.8-.62-1.26,.24-2.1,.77-2.56,1.63-1.06,1.96-.1,5.28,.35,6.4,.25,.61,.06,1.32-.46,1.72-.52,.4-1.26,.41-1.78,0-.8-.6-3.24-2.05-4.93-1.58-.73,.2-1.28,.8-1.69,1.81-.25,.63-.36,1.21-.34,1.77,1.82-.72,3.93-.94,6.31-.67,4.34,.49,6.84,2.49,8.27,4.47,.9-.45,1.94-.71,3.09-.79,.23-.02,.46-.03,.67-.03Z" fill="#1a1a1a"/><path d="M233.52,172.91c-.21,0-.43-.05-.63-.14-1.75-.84-2.19-1.7-2.49-2.5-.11-.3-.14-.38-.71-.65-1.17-.55-2.13,.55-2.24,.68-.51,.62-1.44,.72-2.06,.22-.63-.51-.74-1.42-.24-2.05,.85-1.07,3.15-2.77,5.8-1.51,1.52,.72,1.92,1.52,2.2,2.27,.12,.31,.18,.48,1.01,.88,.73,.35,1.04,1.23,.69,1.96-.25,.53-.78,.84-1.33,.84Z" fill="#1a1a1a"/></g><g><path d="M281.92,204.57c-.64,1.34-1.69,2.56-3.1,3.66-15.25,3.71-44.8,4.08-78.74,4.08-36.58,0-68.04-.49-82.03-5.01-.87-.85-1.57-1.76-2.03-2.73,0,0-3.01-11.81,7.54-12.37,0,0,1.07-11.59,13.09-9.13,4.23,.87,6.3,3.86,7.32,6.54-.4-3.96,.24-9.33,5.89-11.33,9.12-3.23,11.94,3.73,12.1,4.15-.06-.38-.85-5.64,4.02-5.29,3.15,.23,3.96,2.3,4.11,3.83,.27-2.44,1.62-6.82,7.79-7.51,8.61-.97,9.2,6.18,9.2,6.18,0,0-.46-6.59,6.63-7.01,2.32-.14,4.02,.46,5.25,1.32,1.23-.86,2.93-1.46,5.25-1.32,7.09,.42,6.63,7.01,6.63,7.01,0,0,.6-7.15,9.2-6.18,6.16,.7,7.51,5.07,7.79,7.51,.15-1.53,.96-3.6,4.11-3.83,4.87-.35,4.08,4.91,4.02,5.29,.16-.42,2.98-7.37,12.1-4.15,5.65,2,6.29,7.37,5.89,11.33,1.01-2.68,3.09-5.67,7.32-6.54,12.02-2.46,13.09,9.13,13.09,9.13,10.56,.56,7.54,12.37,7.54,12.37Z" fill="#fddb87"/><path d="M281.87,194.29c-1.41-1.92-3.5-3.07-6.24-3.45-.4-1.83-1.51-5.29-4.54-7.54-1.75-1.3-3.85-1.99-6.27-2.04-1.2-.04-2.48,.09-3.84,.37-2.28,.47-4.21,1.52-5.73,3.12-.75-3.85-3.04-6.57-6.68-7.86-.71-.25-1.38-.45-2.03-.59-4.68-1.07-7.7,.45-9.54,2.18-.21-.48-.49-.93-.87-1.35-.7-.76-2.01-1.63-4.28-1.46-1.1,.07-2.06,.35-2.85,.81-.21,.13-.42,.26-.61,.41-.07,.05-.13,.1-.19,.15-.57-1.11-1.43-2.25-2.71-3.16-.04-.04-.1-.07-.14-.1-1.26-.88-2.93-1.55-5.13-1.8-2.82-.32-5.18,.12-7.04,1.31-.26,.17-.52,.36-.76,.56-.46,.38-.85,.79-1.18,1.21-.24-.43-.54-.86-.9-1.26-1.41-1.6-3.44-2.5-6.02-2.65-2.01-.12-3.8,.24-5.34,1.07-1.54-.82-3.32-1.18-5.34-1.07-2.58,.15-4.61,1.05-6.02,2.65-.36,.4-.65,.83-.9,1.26-.33-.42-.72-.83-1.18-1.21-1.96-1.6-4.58-2.23-7.82-1.87-1.1,.12-2.08,.36-2.93,.67-2.65,.96-4.16,2.69-5.04,4.39-.92-.79-2.15-1.27-3.65-1.37-2.27-.17-3.59,.71-4.28,1.46-.38,.41-.66,.87-.87,1.35-1.67-1.57-4.32-2.96-8.31-2.4-1,.14-2.09,.4-3.26,.82-3.65,1.29-5.93,4.01-6.68,7.86-1.52-1.6-3.46-2.65-5.73-3.12-2.57-.52-4.87-.49-6.88,.09-1.18,.34-2.26,.87-3.23,1.59-3.02,2.24-4.14,5.71-4.54,7.54-2.73,.37-4.83,1.53-6.24,3.45-3.07,4.18-1.54,10.38-1.47,10.64,.02,.1,.06,.18,.1,.27,.53,1.1,1.32,2.16,2.34,3.15,.16,.15,.35,.27,.57,.34,14.51,4.7,47.29,5.09,82.48,5.09,32.74,0,63.42-.32,79.08-4.12,.21-.04,.4-.14,.56-.27,1.61-1.26,2.79-2.67,3.52-4.18,.04-.09,.07-.18,.1-.27,.07-.26,1.6-6.46-1.47-10.64Zm-1.35,9.78c-.49,.99-1.29,1.93-2.36,2.81-15.45,3.66-45.74,3.96-78.08,3.96-34.67,0-66.98-.37-81.24-4.84-.61-.62-1.09-1.27-1.42-1.93-.18-.82-1.02-5.28,1.02-8.04,1.07-1.46,2.77-2.23,5.21-2.35,.72-.04,1.31-.61,1.38-1.33,0-.04,.47-4.39,3.59-6.68,.37-.28,.78-.51,1.21-.71,1.76-.82,3.95-.96,6.54-.43,2.96,.6,5.05,2.49,6.23,5.62,.26,.69,.99,1.08,1.71,.91,.71-.17,1.2-.85,1.12-1.58-.51-5.16,1.14-8.46,4.92-9.79,.68-.24,1.32-.42,1.92-.54,6.15-1.26,8.1,3.26,8.32,3.83,.27,.7,1.03,1.09,1.76,.89,.72-.19,1.18-.9,1.07-1.64-.12-.79-.15-2.33,.55-3.08,.14-.15,.57-.62,1.91-.53,1.74,.13,2.59,.9,2.75,2.51,.07,.75,.71,1.32,1.46,1.32h0c.75,0,1.38-.57,1.46-1.31,.26-2.4,1.49-5.33,5.74-6.1,.24-.04,.49-.08,.74-.11,2.4-.27,4.28,.13,5.59,1.19,1.76,1.43,1.99,3.64,1.99,3.65,.07,.8,.76,1.4,1.57,1.34,.8-.06,1.41-.75,1.37-1.56-.03-.52-.14-5.13,5.25-5.45,1.71-.11,3.17,.25,4.32,1.06,.51,.35,1.18,.35,1.69,0,1.15-.81,2.6-1.16,4.32-1.06,5.39,.32,5.29,4.93,5.26,5.44-.06,.8,.54,1.5,1.35,1.57,.79,.06,1.51-.53,1.58-1.33,0-.02,.24-2.23,1.99-3.66,.26-.21,.56-.4,.87-.57,1.22-.63,2.8-.84,4.71-.62,4.85,.55,6.21,3.68,6.49,6.21,.04,.42,.26,.78,.58,1.01,.24,.19,.55,.3,.88,.3h0c.75,0,1.38-.57,1.46-1.32,.08-.78,.32-1.37,.75-1.77,.45-.43,1.11-.67,2-.74,1.35-.1,1.77,.37,1.91,.52,.7,.75,.68,2.29,.55,3.08-.11,.74,.35,1.45,1.08,1.64,.72,.19,1.48-.19,1.75-.89,.23-.6,2.37-5.57,9.34-3.57,.29,.07,.59,.17,.9,.28,3.78,1.34,5.43,4.64,4.92,9.8-.07,.74,.41,1.41,1.12,1.58,.71,.17,1.45-.22,1.71-.91,1.18-3.12,3.28-5.01,6.23-5.62,3.21-.66,5.82-.27,7.75,1.15,3.12,2.29,3.58,6.64,3.59,6.68,.05,.55,.4,1.01,.89,1.22,.15,.07,.32,.11,.49,.12,2.43,.12,4.13,.9,5.21,2.35,2.04,2.76,1.21,7.21,1.02,8.04Z" fill="#1a1a1a"/><path d="M149.78,202.31c-.51,0-1.01-.27-1.28-.75-.79-1.41-1.01-2.6-.68-3.66,.48-1.55,1.94-2.25,3.35-2.94,1.27-.61,2.57-1.25,3.32-2.46,.81-1.31,1.97-2.16,3.37-2.44,2.87-.6,5.75,1.33,6.06,1.55,.67,.46,.83,1.38,.36,2.05-.46,.66-1.38,.83-2.04,.37-.58-.4-2.4-1.38-3.79-1.08-.6,.13-1.06,.48-1.45,1.11-1.19,1.93-3.05,2.83-4.54,3.56-.77,.37-1.73,.84-1.83,1.17-.02,.06-.09,.41,.44,1.34,.4,.71,.15,1.6-.56,2-.23,.13-.47,.19-.72,.19Z" fill="#1a1a1a"/><path d="M244.82,202.33c-.6,0-1.16-.36-1.38-.95-.76-2.01-4.86-1.65-6.23-1.37-.49,.1-1-.05-1.35-.41-.35-.36-.49-.87-.38-1.36,0-.04,.3-2.11-3.07-4.42-3.22-2.21-5.78,.04-6.06,.31-.59,.55-1.52,.53-2.08-.05s-.54-1.51,.04-2.07c1.53-1.48,5.53-3.51,9.76-.62,2.87,1.96,3.87,4.03,4.2,5.49,2.91-.25,6.73,.29,7.92,3.46,.29,.76-.1,1.61-.86,1.89-.17,.06-.34,.09-.52,.09Z" fill="#1a1a1a"/><path d="M181.74,203.92c-.08,0-.15,0-.23-.02-.8-.13-1.35-.87-1.22-1.67,.34-2.24,2.28-6.32,7.2-5.8,1.79,.19,3.05-.24,4.5-.75,2.05-.71,4.37-1.51,8.29-.67,1.6,.35,3.26,.54,4.87,.73,4.65,.55,9.45,1.11,9.45,5.84,0,.81-.66,1.47-1.47,1.47s-1.47-.66-1.47-1.47c0-1.92-2.09-2.36-6.85-2.92-1.67-.2-3.4-.4-5.14-.78-3.11-.67-4.86-.07-6.71,.57-1.64,.57-3.33,1.15-5.78,.89-3.22-.34-3.88,2.71-3.98,3.32-.12,.72-.74,1.24-1.45,1.24Z" fill="#1a1a1a"/></g><g><path d="M225.35,173.78c-1.26-.88-2.93-1.55-5.13-1.8-2.82-.32-5.18,.12-7.04,1.31-.26,.17-.52,.36-.76,.56-.46,.38-.85,.79-1.18,1.21-.24-.43-.54-.86-.9-1.26-1.41-1.6-3.44-2.5-6.02-2.65-2.01-.12-3.8,.24-5.34,1.07-1.54-.82-3.32-1.18-5.34-1.07-2.58,.15-4.61,1.05-6.02,2.65-.36,.4-.65,.83-.9,1.26-.33-.42-.72-.83-1.18-1.21-1.96-1.6-4.58-2.23-7.82-1.87-1.1,.12-2.08,.36-2.93,.67-2.65,.96-4.16,2.69-5.04,4.39-.92-.79-2.15-1.27-3.65-1.37-2.27-.17-3.59,.71-4.28,1.46-.38,.41-.66,.87-.87,1.35-1.67-1.57-4.32-2.96-8.31-2.4,.89-3.52,3.62-6.48,10.1-6.88,0,0-.8-10.53,11.06-10.45,11.02,.07,10.54,6.37,10.54,6.37,0,0,.66-4.98,9.11-5.12,6.76-.12,7.98,4.11,7.98,4.11,0,0,3.57-6.41,10.88-5.57,7.3,.84,7.07,8.45,7.07,8.45,0,0,7.29,.35,5.98,6.81Z" fill="#f1b760"/><path d="M160.95,179.95c-.37,0-.73-.14-1.01-.4-1.86-1.74-4.25-2.42-7.1-2.02-.49,.07-.97-.11-1.3-.47-.33-.36-.45-.87-.33-1.34,.8-3.18,3.22-7.02,10.08-7.86,.13-1.73,.71-4.69,2.92-7.06,2.2-2.36,5.4-3.54,9.59-3.51,4.74,.03,8.17,1.16,10.2,3.36,.27,.3,.5,.59,.7,.89,1.46-1.49,4.07-2.93,8.71-3.01,4.4-.08,6.83,1.52,8.1,2.96,1.81-2.09,5.43-5.05,10.95-4.42,5.96,.68,7.96,5.38,8.31,8.63,1.39,.28,3.55,1,4.93,2.76,1.17,1.5,1.53,3.39,1.08,5.62-.1,.49-.43,.89-.89,1.07-.46,.18-.98,.13-1.39-.16-1.18-.82-2.68-1.34-4.46-1.55-2.46-.28-4.51,.08-6.09,1.09-.2,.13-.41,.28-.62,.46-.35,.29-.67,.62-.96,.99-.3,.38-.78,.59-1.27,.55-.49-.04-.93-.31-1.17-.74-.22-.38-.46-.72-.72-1.01-1.15-1.31-2.84-2.03-5.01-2.16-1.74-.1-3.26,.2-4.56,.89-.43,.23-.95,.23-1.39,0-1.3-.69-2.83-.99-4.56-.89-2.17,.13-3.86,.86-5,2.16-.27,.31-.51,.64-.72,1.01-.24,.43-.68,.71-1.17,.75-.49,.04-.97-.17-1.27-.55-.29-.37-.62-.7-.97-.99-1.63-1.34-3.89-1.86-6.72-1.54-.93,.11-1.81,.3-2.6,.59-1.9,.69-3.33,1.93-4.23,3.68-.21,.4-.59,.68-1.03,.77-.44,.09-.9-.04-1.24-.33-.69-.6-1.63-.94-2.79-1.02-1.7-.12-2.62,.47-3.09,.99-.25,.27-.45,.58-.6,.94-.19,.44-.58,.76-1.05,.86-.1,.02-.2,.03-.3,.03Zm-6.1-5.46c2.45,.09,4.34,.88,5.73,1.82,.05-.06,.1-.12,.16-.18,.74-.81,2.44-2.15,5.46-1.93,1.13,.08,2.17,.35,3.08,.79,1.23-1.71,2.9-2.96,5-3.72,1.01-.37,2.11-.62,3.27-.75,3.65-.41,6.64,.33,8.91,2.19,.03,.02,.06,.05,.08,.07,1.68-1.88,4.03-2.93,7-3.11,1.99-.12,3.81,.19,5.43,.9,1.61-.71,3.43-1.02,5.42-.9,2.97,.18,5.32,1.22,7,3.11,.03-.02,.05-.05,.08-.07,.31-.25,.61-.47,.91-.66,2.16-1.38,4.85-1.89,8-1.53,1.29,.15,2.47,.43,3.54,.85-.1-.41-.28-.78-.53-1.11-1.06-1.37-3.32-1.78-4.1-1.82-.8-.04-1.42-.72-1.39-1.51,.01-.64-.02-6.29-5.76-6.95-6.2-.71-9.3,4.61-9.43,4.83-.29,.51-.86,.81-1.45,.74-.59-.07-1.08-.48-1.24-1.05-.04-.11-1.1-3.14-6.54-3.05-6.95,.12-7.65,3.72-7.68,3.88-.13,.77-.86,1.32-1.63,1.22-.78-.1-1.35-.77-1.29-1.56,0-.03,.04-1.25-1.08-2.43-1.44-1.52-4.21-2.33-8-2.36-.04,0-.08,0-.13,0-3.23,0-5.68,.86-7.28,2.56-2.4,2.56-2.18,6.27-2.18,6.31,.03,.39-.1,.78-.36,1.07s-.62,.48-1.01,.5c-3.99,.24-6.63,1.5-7.99,3.83Z" fill="#1a1a1a"/><path d="M168.53,171.48c-.76,0-1.41-.59-1.46-1.36-.25-3.37,2.36-4.07,4.09-4.53,.27-.07,.54-.14,.82-.23,.37-.11,.54-.2,.6-.24,.02-.05,.03-.1,.05-.16,.1-.35,.28-.95,.83-1.54,1.3-1.41,2.95-1.11,3.63-.75l-1.35,2.61s.02,.02,.07,.03c-.03-.01-.07-.02-.19,.1-.08,.08-.1,.13-.17,.38-.32,1.09-.87,1.86-2.62,2.39-.3,.09-.61,.17-.9,.25-1.99,.53-1.98,.67-1.92,1.47,.06,.81-.55,1.51-1.36,1.57-.04,0-.07,0-.11,0Z" fill="#1a1a1a"/></g></g><g><g><path d="M279.46,265.84h6.04c2.34,0,4.42,1.09,5.68,2.76l-9.09-26.74-2.63,23.98Z" fill="#d2c8b9"/><path d="M291.19,269.7c-.34,0-.66-.15-.88-.44-1.1-1.45-2.9-2.32-4.8-2.32h-6.04c-.31,0-.61-.13-.82-.37-.21-.23-.31-.54-.27-.86l2.63-23.98c.06-.51,.46-.92,.98-.98,.51-.05,1,.25,1.16,.74l9.09,26.74c.17,.51-.05,1.08-.53,1.33-.16,.09-.34,.13-.52,.13Zm-10.5-4.96h4.81c1.21,0,2.39,.26,3.46,.74l-6.31-18.56-1.96,17.82Z" fill="#1a1a1a"/></g><g><path d="M120.29,265.84h-6.04c-2.34,0-4.42,1.09-5.68,2.76l9.09-26.74,2.63,23.98Z" fill="#d2c8b9"/><path d="M108.04,269.57c-.48-.25-.7-.82-.53-1.33l9.09-26.74c.17-.49,.66-.8,1.16-.74,.51,.06,.92,.46,.98,.98l2.63,23.98c.03,.31-.07,.62-.27,.86-.21,.23-.51,.37-.82,.37h-6.04c-1.91,0-3.7,.87-4.8,2.32-.21,.28-.54,.44-.88,.44-.18,0-.35-.04-.52-.13Zm9.06-22.66l-6.31,18.56c1.07-.48,2.25-.74,3.46-.74h4.81s-1.96-17.82-1.96-17.82Z" fill="#1a1a1a"/></g><path d="M291.81,272.39v45.91c0,3.62-3.12,6.55-6.98,6.55h-77.36v-8.49c0-1.98-.85-3.76-2.23-5.04-1.37-1.29-3.27-2.1-5.37-2.1-4.19,0-7.59,3.2-7.59,7.14v8.49H114.91c-3.85,0-6.98-2.93-6.98-6.55v-45.91c0-1.42,.48-2.73,1.29-3.79,1.26-1.67,3.35-2.76,5.68-2.76h77.37v6.27c0,3.94,3.4,7.13,7.59,7.13s7.59-3.19,7.59-7.13v-6.27h77.37c3.85,0,6.98,2.93,6.98,6.55Z" fill="#ebe0cb"/><path d="M284.84,325.95h-77.36c-.61,0-1.1-.49-1.1-1.1v-8.49c0-1.6-.67-3.1-1.88-4.24-1.23-1.16-2.86-1.8-4.61-1.8-3.58,0-6.49,2.71-6.49,6.04v8.49c0,.61-.49,1.1-1.1,1.1H114.91c-4.45,0-8.08-3.43-8.08-7.65v-45.91c0-1.62,.53-3.16,1.52-4.46,1.51-2,3.97-3.19,6.56-3.19h77.37c.61,0,1.1,.49,1.1,1.1v6.27c0,3.32,2.91,6.03,6.49,6.03s6.48-2.7,6.48-6.03v-6.27c0-.61,.49-1.1,1.1-1.1h77.37c4.45,0,8.08,3.43,8.08,7.65v45.91c0,4.22-3.62,7.65-8.08,7.65Zm-76.26-2.21h76.26c3.24,0,5.87-2.44,5.87-5.45v-45.91c0-3-2.63-5.45-5.87-5.45h-76.27v5.17c0,4.54-3.9,8.23-8.69,8.23s-8.7-3.69-8.7-8.23v-5.17H114.91c-1.91,0-3.7,.87-4.8,2.32-.7,.92-1.07,2-1.07,3.13v45.91c0,3,2.63,5.45,5.87,5.45h76.27v-7.39c0-4.54,3.9-8.24,8.7-8.24,2.32,0,4.49,.85,6.13,2.4,1.66,1.55,2.57,3.63,2.57,5.84v7.39Z" fill="#1a1a1a"/><g><path d="M183.37,282.48v26.35c0,3.67-2.98,6.65-6.65,6.65h-52.08c-3.67,0-6.65-2.98-6.65-6.65v-26.35c0-3.67,2.98-6.65,6.65-6.65h52.08c3.68,0,6.65,2.98,6.65,6.65Z" fill="#188ca1"/><path d="M183.37,282.48v26.35c0,3.67-2.98,6.65-6.65,6.65h-.74c-5.68-33.42-35.94-39.64-35.94-39.64h36.68c3.68,0,6.65,2.98,6.65,6.65Z" fill="#19808e"/></g><g><rect x="216.38" y="275.83" width="65.38" height="39.64" rx="9.87" ry="9.87" fill="#d94d30"/><path d="M281.77,282.48v26.35c0,3.67-2.98,6.65-6.65,6.65h-.74c-5.68-33.42-35.94-39.64-35.94-39.64h36.68c3.68,0,6.65,2.98,6.65,6.65Z" fill="#bd3b27"/></g></g></g><g><text transform="translate(150.95 478.15)" fill="#fff" font-family="SuezOne-Regular, &apos;Suez One&apos;" font-size="35.09"><tspan x="0" y="0">chillFLIX</tspan></text><g><path d="M128.82,450.82c-8.71,0-15.78,7.06-15.78,15.78s7.06,15.78,15.78,15.78,15.78-7.06,15.78-15.78-7.06-15.78-15.78-15.78Zm0,1.15c2.84,0,5.14,2.3,5.14,5.14s-2.3,5.14-5.14,5.14-5.14-2.3-5.14-5.14,2.3-5.14,5.14-5.14Zm2.99,14.63c0,1.65-1.34,2.99-2.99,2.99s-2.99-1.34-2.99-2.99,1.34-2.99,2.99-2.99,2.99,1.34,2.99,2.99Zm-12.47,5.14c-2.84,0-5.14-2.3-5.14-5.14s2.3-5.14,5.14-5.14,5.14,2.3,5.14,5.14-2.3,5.14-5.14,5.14Zm9.48,9.48c-2.84,0-5.14-2.3-5.14-5.14s2.3-5.14,5.14-5.14,5.14,2.3,5.14,5.14-2.3,5.14-5.14,5.14Zm9.48-9.48c-2.84,0-5.14-2.3-5.14-5.14s2.3-5.14,5.14-5.14,5.14,2.3,5.14,5.14-2.3,5.14-5.14,5.14Z" fill="#ebe0cb"/><circle cx="128.82" cy="466.6" r="2.99" fill="#1a1a1a"/><circle cx="128.82" cy="457.12" r="5.14" transform="translate(-101.58 41.83) rotate(-13.28)" fill="#1a1a1a"/><circle cx="128.82" cy="476.09" r="5.14" transform="translate(-74.6 26.78) rotate(-9.22)" fill="#1a1a1a"/><circle cx="119.34" cy="466.6" r="5.14" transform="translate(-104.01 39.9) rotate(-13.28)" fill="#1a1a1a"/><circle cx="138.3" cy="466.6" r="5.14" fill="#1a1a1a"/></g></g></g></g></svg>